<?xml version="1.0" encoding="utf-8"?>
<!-- Generator: Adobe Illustrator 18.0.0, SVG Export Plug-In . SVG Version: 6.00 Build 0)  -->
<!DOCTYPE svg PUBLIC "-//W3C//DTD SVG 1.1//EN" "http://www.w3.org/Graphics/SVG/1.1/DTD/svg11.dtd">
<svg version="1.1" id="_x34_.1_3D_Buildings" xmlns="http://www.w3.org/2000/svg" xmlns:xlink="http://www.w3.org/1999/xlink"
	 x="0px" y="0px" viewBox="3201.5 -264.2 634.1 799.8" enable-background="new 3201.5 -264.2 634.1 799.8" xml:space="preserve">
<rect x="3429.4" y="-129.9" transform="matrix(-0.1188 -0.9929 0.9929 -0.1188 3960.4939 3283.8835)" fill="#FFFFFF" stroke="#0A4650" stroke-width="0.5" stroke-linecap="round" stroke-linejoin="round" stroke-miterlimit="10" width="16.1" height="28.8"/>
<polygon fill="#FFFFFF" stroke="#0A4650" stroke-width="0.5" stroke-linecap="round" stroke-linejoin="round" stroke-miterlimit="10" points="
	3424.1,-100.8 3422.2,-116.8 3422.2,-121.8 3424.1,-105.8 "/>
<polygon fill="#E1F5E6" stroke="#0A4650" stroke-width="0.5" stroke-linecap="round" stroke-linejoin="round" stroke-miterlimit="10" points="
	3452.7,-109.2 3452.7,-104.2 3424.1,-100.8 3424.1,-105.8 "/>
<polygon fill="#E1F5E6" stroke="#0A4650" stroke-width="0.5" stroke-linecap="round" stroke-linejoin="round" stroke-miterlimit="10" points="
	3492,-62.5 3471.5,-62 3471.5,-70 3492,-70.5 "/>
<polygon fill="#FFFFFF" stroke="#0A4650" stroke-width="0.5" stroke-linecap="round" stroke-linejoin="round" stroke-miterlimit="10" points="
	3471.5,-70 3471.5,-62 3471.1,-78.7 3471.1,-86.7 "/>
<rect x="3473.2" y="-88.8" transform="matrix(2.440742e-002 0.9997 -0.9997 2.440742e-002 3318.0425 -3557.1768)" fill="#FFFFFF" stroke="#0A4650" stroke-width="0.5" stroke-linecap="round" stroke-linejoin="round" stroke-miterlimit="10" width="16.7" height="20.5"/>
<polygon fill="#E1F5E6" stroke="#0A4650" stroke-width="0.5" stroke-linecap="round" stroke-linejoin="round" stroke-miterlimit="10" points="
	3510.9,18.6 3487.1,18.4 3487.1,13.9 3510.9,14.1 "/>
<polygon fill="#FFFFFF" stroke="#0A4650" stroke-width="0.5" stroke-linecap="round" stroke-linejoin="round" stroke-miterlimit="10" points="
	3487.1,18.4 3485.5,-1.6 3485.5,-6.1 3487.1,13.9 "/>
<polygon fill="#FFFFFF" stroke="#0A4650" stroke-width="0.5" stroke-linecap="round" stroke-linejoin="round" stroke-miterlimit="10" points="
	3487.1,13.9 3485.5,-6.1 3509,-8.1 3510.9,14.1 "/>
<polygon fill="#E1F5E6" stroke="#0A4650" stroke-width="0.5" stroke-linecap="round" stroke-linejoin="round" stroke-miterlimit="10" points="
	3520.7,130.9 3517.4,133.2 3517.4,127.1 3520.7,124.8 "/>
<polygon fill="#FFFFFF" stroke="#0A4650" stroke-width="0.5" stroke-linecap="round" stroke-linejoin="round" stroke-miterlimit="10" points="
	3488.4,98.3 3507.8,102 3503.4,125.2 3480.7,120.8 3485.6,95.7 3488.4,96.2 3488,98.2 "/>
<polygon fill="#FFFFFF" stroke="#0A4650" stroke-width="0.5" stroke-linecap="round" stroke-linejoin="round" stroke-miterlimit="10" points="
	3520.7,130.9 3520.7,124.8 3524.7,103.8 3524.7,110 "/>
<polygon fill="#FFFFFF" stroke="#0A4650" stroke-width="0.5" stroke-linecap="round" stroke-linejoin="round" stroke-miterlimit="10" points="
	3524.7,103.8 3520.7,124.8 3517.4,127.1 3503.6,124.4 3507.8,102.7 3508.2,100.7 "/>
<polygon fill="#FFFFFF" stroke="#0A4650" stroke-width="0.5" stroke-linecap="round" stroke-linejoin="round" stroke-miterlimit="10" points="
	3507.8,102.7 3503.6,124.4 3503.6,130.6 3503.4,132 3503.4,125.2 3507.8,102 "/>
<polygon fill="#FFFFFF" stroke="#0A4650" stroke-width="0.5" stroke-linecap="round" stroke-linejoin="round" stroke-miterlimit="10" points="
	3488.4,98.3 3488,98.2 3488.4,96.2 "/>
<polygon fill="#E1F5E6" stroke="#0A4650" stroke-width="0.5" stroke-linecap="round" stroke-linejoin="round" stroke-miterlimit="10" points="
	3503.6,130.6 3503.6,124.4 3517.4,127.1 3517.4,133.2 "/>
<polygon fill="#E1F5E6" stroke="#0A4650" stroke-width="0.5" stroke-linecap="round" stroke-linejoin="round" stroke-miterlimit="10" points="
	3503.4,125.2 3503.4,132 3480.7,127.7 3480.7,120.8 "/>
<polygon fill="#FFFFFF" stroke="#0A4650" stroke-width="0.5" stroke-linecap="round" stroke-linejoin="round" stroke-miterlimit="10" points="
	3405.4,-160 3400.8,-135 3400.8,-138.3 3405.4,-163.3 "/>
<polygon fill="#FFFFFF" stroke="#0A4650" stroke-width="0.5" stroke-linecap="round" stroke-linejoin="round" stroke-miterlimit="10" points="
	3366.1,-157.6 3369.6,-157.8 3369.8,-157.8 3369.6,-160.7 3405.4,-163.3 3400.8,-138.3 3371.4,-136.2 3370,-156 3366.2,-155.7 "/>
<polygon fill="#FFFFFF" stroke="#0A4650" stroke-width="0.5" stroke-linecap="round" stroke-linejoin="round" stroke-miterlimit="10" points="
	3369.8,-157.8 3369.6,-157.8 3369.6,-160.7 "/>
<polygon fill="#E1F5E6" stroke="#0A4650" stroke-width="0.5" stroke-linecap="round" stroke-linejoin="round" stroke-miterlimit="10" points="
	3400.8,-135 3371.4,-132.9 3371.4,-136.2 3400.8,-138.3 "/>
<polygon fill="#FFFFFF" stroke="#0A4650" stroke-width="0.5" stroke-linecap="round" stroke-linejoin="round" stroke-miterlimit="10" points="
	3371.4,-132.9 3370,-152.7 3370,-156 3371.4,-136.2 "/>
<polygon fill="#FFFFFF" stroke="#0A4650" stroke-width="0.5" stroke-linecap="round" stroke-linejoin="round" stroke-miterlimit="10" points="
	3370,-152.7 3366.2,-152.4 3366.2,-155.7 3370,-156 "/>
<polygon fill="#FFFFFF" stroke="#0A4650" stroke-width="0.5" stroke-linecap="round" stroke-linejoin="round" stroke-miterlimit="10" points="
	3366.2,-152.4 3366.1,-154.2 3366.1,-157.6 3366.2,-155.7 "/>
<polygon fill="#FFFFFF" stroke="#0A4650" stroke-width="0.5" stroke-linecap="round" stroke-linejoin="round" stroke-miterlimit="10" points="
	3444.5,77.2 3443.3,96 3443.3,88.7 3443.3,82.5 3444.5,63.8 "/>
<polygon fill="#FFFFFF" stroke="#0A4650" stroke-width="0.5" stroke-linecap="round" stroke-linejoin="round" stroke-miterlimit="10" points="
	3443.3,88.7 3443.3,96 3443.3,102.2 3442.4,114.3 3442.4,100.9 "/>
<polygon fill="#FFFFFF" stroke="#0A4650" stroke-width="0.5" stroke-linecap="round" stroke-linejoin="round" stroke-miterlimit="10" points="
	3443.3,88.7 3442.4,100.9 3425.4,95.6 3425.2,95.6 3425,95.5 3424.8,95.4 3424.6,95.3 3424.5,95.2 3424.3,95.1 3424.1,95 3424,94.8 
	3423.8,94.7 3423.7,94.5 3423.6,94.4 3423.4,94.2 3423.3,94 3423.2,93.8 3423.1,93.6 3423,93.5 3422.9,93.3 3422.9,93.1 
	3422.8,92.9 3422.8,92.7 3422.7,92.5 3422.7,92.3 3422.7,92.1 3422.7,91.9 3423.7,62.4 3444.5,63.8 3443.3,82.5 3440,82.3 
	3439.8,85.3 3440,85.5 "/>
<polygon fill="#E1F5E6" stroke="#0A4650" stroke-width="0.5" stroke-linecap="round" stroke-linejoin="round" stroke-miterlimit="10" points="
	3443.3,88.7 3440,85.5 3440,82.3 3443.3,82.5 "/>
<polygon fill="#FFFFFF" stroke="#0A4650" stroke-width="0.5" stroke-linecap="round" stroke-linejoin="round" stroke-miterlimit="10" points="
	3440,85.5 3439.8,85.3 3440,82.3 "/>
<polygon fill="#E1F5E6" stroke="#0A4650" stroke-width="0.5" stroke-linecap="round" stroke-linejoin="round" stroke-miterlimit="10" points="
	3425.4,95.6 3425.2,95.6 3425,95.5 3424.8,95.4 3424.6,95.3 3424.5,95.2 3424.3,95.1 3424.1,95 3424,94.8 3423.8,94.7 3423.7,94.5 
	3423.6,94.4 3423.4,94.2 3423.3,94 3423.2,93.8 3423.1,93.6 3423,93.5 3422.9,93.3 3422.9,93.1 3422.8,92.9 3422.8,92.7 
	3422.7,92.5 3422.7,92.3 3422.7,92.1 3422.7,105.6 3422.7,105.8 3422.7,106 3422.8,106.1 3422.8,106.3 3422.9,106.5 3422.9,106.7 
	3423,106.9 3423.1,107.1 3423.2,107.3 3423.3,107.5 3423.4,107.7 3423.6,107.8 3423.7,108 3423.8,108.1 3424,108.3 3424.1,108.4 
	3424.3,108.6 3424.5,108.7 3424.6,108.8 3424.8,108.9 3425,109 3425.2,109 3425.4,109.1 3442.4,114.3 3442.4,100.9 "/>
<polygon fill="#FFFFFF" stroke="#0A4650" stroke-width="0.5" stroke-linecap="round" stroke-linejoin="round" stroke-miterlimit="10" points="
	3448.1,32.4 3448.1,59.7 3448.1,51.7 3448.1,32.4 "/>
<polygon fill="#FFFFFF" stroke="#0A4650" stroke-width="0.5" stroke-linecap="round" stroke-linejoin="round" stroke-miterlimit="10" points="
	3448.1,32.4 3448.1,51.7 3424.6,51.6 3425.2,24.4 3448.1,24.4 "/>
<polygon fill="#FFFFFF" stroke="#0A4650" stroke-width="0.5" stroke-linecap="round" stroke-linejoin="round" stroke-miterlimit="10" points="
	3448.1,32.4 3448.1,24.4 3448.1,32.4 "/>
<polygon fill="#E1F5E6" stroke="#0A4650" stroke-width="0.5" stroke-linecap="round" stroke-linejoin="round" stroke-miterlimit="10" points="
	3448.1,59.7 3424.6,59.6 3424.6,51.6 3448.1,51.7 "/>
<polygon fill="#E1F5E6" stroke="#0A4650" stroke-width="0.5" stroke-linecap="round" stroke-linejoin="round" stroke-miterlimit="10" points="
	3503,-110.6 3498.6,-110.2 3498.6,-112.6 3503,-113.1 "/>
<polygon fill="#FFFFFF" stroke="#0A4650" stroke-width="0.5" stroke-linecap="round" stroke-linejoin="round" stroke-miterlimit="10" points="
	3498.6,-110.2 3497.9,-116.9 3497.9,-119.4 3498.6,-112.6 "/>
<rect x="3497.1" y="-118.5" transform="matrix(-9.911928e-002 -0.9951 0.9951 -9.911928e-002 3963.1118 3355.5144)" fill="#FFFFFF" stroke="#0A4650" stroke-width="0.5" stroke-linecap="round" stroke-linejoin="round" stroke-miterlimit="10" width="6.7" height="4.5"/>
<polygon fill="#E1F5E6" stroke="#0A4650" stroke-width="0.5" stroke-linecap="round" stroke-linejoin="round" stroke-miterlimit="10" points="
	3465.9,91.2 3465.9,90.5 3484.9,91.4 3484.9,98.2 3459,97 3459,90.8 "/>
<polygon fill="#FFFFFF" stroke="#0A4650" stroke-width="0.5" stroke-linecap="round" stroke-linejoin="round" stroke-miterlimit="10" points="
	3465.9,90.5 3465.9,91.2 3459,90.8 3459.9,71.9 3466.8,72.2 "/>
<polygon fill="#FFFFFF" stroke="#0A4650" stroke-width="0.5" stroke-linecap="round" stroke-linejoin="round" stroke-miterlimit="10" points="
	3465.9,90.5 3466.8,72.2 3466.8,71.5 3485.8,72.4 3484.9,91.4 "/>
<polygon fill="#FFFFFF" stroke="#0A4650" stroke-width="0.5" stroke-linecap="round" stroke-linejoin="round" stroke-miterlimit="10" points="
	3484.9,98.2 3484.9,91.4 3485.8,72.4 3485.8,79.2 "/>
<polygon fill="#FFFFFF" stroke="#0A4650" stroke-width="0.5" stroke-linecap="round" stroke-linejoin="round" stroke-miterlimit="10" points="
	3449,-177.3 3444,-143.1 3444,-148.9 3449,-183.1 "/>
<polygon fill="#E1F5E6" stroke="#0A4650" stroke-width="0.5" stroke-linecap="round" stroke-linejoin="round" stroke-miterlimit="10" points="
	3444,-143.1 3424.1,-141.6 3424.1,-147.5 3444,-148.9 "/>
<polygon fill="#FFFFFF" stroke="#0A4650" stroke-width="0.5" stroke-linecap="round" stroke-linejoin="round" stroke-miterlimit="10" points="
	3424.1,-141.6 3420.8,-144.6 3420.8,-150.5 3424.1,-147.5 "/>
<polygon fill="#FFFFFF" stroke="#0A4650" stroke-width="0.5" stroke-linecap="round" stroke-linejoin="round" stroke-miterlimit="10" points="
	3424.1,-147.5 3420.8,-150.5 3425.7,-183 3449,-183.1 3444,-148.9 "/>
<polygon fill="#E1F5E6" stroke="#0A4650" stroke-width="0.5" stroke-linecap="round" stroke-linejoin="round" stroke-miterlimit="10" points="
	3403.9,-60.7 3379.3,-58.3 3379.3,-66.3 3403.9,-68.7 "/>
<polygon fill="#FFFFFF" stroke="#0A4650" stroke-width="0.5" stroke-linecap="round" stroke-linejoin="round" stroke-miterlimit="10" points="
	3379.3,-58.3 3378,-118 3378,-126 3379.3,-66.3 "/>
<polygon fill="#FFFFFF" stroke="#0A4650" stroke-width="0.5" stroke-linecap="round" stroke-linejoin="round" stroke-miterlimit="10" points="
	3379.3,-66.3 3378,-126 3400.4,-126.4 3402.5,-124.4 3403.9,-68.7 "/>
<polygon fill="#FFFFFF" stroke="#0A4650" stroke-width="0.5" stroke-linecap="round" stroke-linejoin="round" stroke-miterlimit="10" points="
	3686.8,-37.2 3685.6,-80.4 3685.6,-85.4 3686.8,-42.2 "/>
<polygon fill="#E1F5E6" stroke="#0A4650" stroke-width="0.5" stroke-linecap="round" stroke-linejoin="round" stroke-miterlimit="10" points="
	3686.8,-37.2 3686.8,-42.2 3709.3,-42.8 3709.3,-37.8 "/>
<rect x="3675.8" y="-75.3" transform="matrix(2.925439e-002 0.9996 -0.9996 2.925439e-002 3525.1877 -3758.0391)" fill="#FFFFFF" stroke="#0A4650" stroke-width="0.5" stroke-linecap="round" stroke-linejoin="round" stroke-miterlimit="10" width="43.2" height="22.5"/>
<polygon fill="#E1F5E6" stroke="#0A4650" stroke-width="0.5" stroke-linecap="round" stroke-linejoin="round" stroke-miterlimit="10" points="
	3651.1,-107.9 3645.8,-107.6 3645.8,-110.1 3651.1,-110.4 "/>
<polygon fill="#FFFFFF" stroke="#0A4650" stroke-width="0.5" stroke-linecap="round" stroke-linejoin="round" stroke-miterlimit="10" points="
	3645.8,-107.6 3645.2,-118.6 3645.2,-121.1 3645.8,-110.1 "/>
<rect x="3642.6" y="-118.4" transform="matrix(-5.678237e-002 -0.9984 0.9984 -5.678237e-002 3970.7888 3519.9331)" fill="#FFFFFF" stroke="#0A4650" stroke-width="0.5" stroke-linecap="round" stroke-linejoin="round" stroke-miterlimit="10" width="11" height="5.3"/>
<polygon fill="#E1F5E6" stroke="#0A4650" stroke-width="0.5" stroke-linecap="round" stroke-linejoin="round" stroke-miterlimit="10" points="
	3649.6,-47.8 3640,-47.4 3640,-49.9 3649.6,-50.3 "/>
<polygon fill="#FFFFFF" stroke="#0A4650" stroke-width="0.5" stroke-linecap="round" stroke-linejoin="round" stroke-miterlimit="10" points="
	3640,-47.4 3639.9,-51.6 3639.9,-54.1 3640,-49.9 "/>
<polygon fill="#E1F5E6" stroke="#0A4650" stroke-width="0.5" stroke-linecap="round" stroke-linejoin="round" stroke-miterlimit="10" points="
	3639.9,-51.6 3635.8,-51.5 3635.8,-54 3639.9,-54.1 "/>
<polygon fill="#FFFFFF" stroke="#0A4650" stroke-width="0.5" stroke-linecap="round" stroke-linejoin="round" stroke-miterlimit="10" points="
	3635.8,-51.5 3635.4,-62.9 3635.4,-65.4 3635.8,-54 "/>
<polygon fill="#FFFFFF" stroke="#0A4650" stroke-width="0.5" stroke-linecap="round" stroke-linejoin="round" stroke-miterlimit="10" points="
	3635.4,-65.4 3649,-65.9 3649.6,-50.3 3640,-49.9 3639.9,-54.1 3635.8,-54 "/>
<polygon fill="#E1F5E6" stroke="#0A4650" stroke-width="0.5" stroke-linecap="round" stroke-linejoin="round" stroke-miterlimit="10" points="
	3653.5,6.4 3643.6,6.7 3643.6,4.2 3653.5,3.9 "/>
<polygon fill="#FFFFFF" stroke="#0A4650" stroke-width="0.5" stroke-linecap="round" stroke-linejoin="round" stroke-miterlimit="10" points="
	3643.6,6.7 3643.5,3.4 3643.5,0.9 3643.6,4.2 "/>
<polygon fill="#E1F5E6" stroke="#0A4650" stroke-width="0.5" stroke-linecap="round" stroke-linejoin="round" stroke-miterlimit="10" points="
	3643.5,3.4 3642.2,3.4 3642.2,0.9 3643.5,0.9 "/>
<polygon fill="#FFFFFF" stroke="#0A4650" stroke-width="0.5" stroke-linecap="round" stroke-linejoin="round" stroke-miterlimit="10" points="
	3642.2,3.4 3641.8,-9.6 3641.8,-12.1 3642.2,0.9 "/>
<polygon fill="#FFFFFF" stroke="#0A4650" stroke-width="0.5" stroke-linecap="round" stroke-linejoin="round" stroke-miterlimit="10" points="
	3643.5,0.9 3642.2,0.9 3641.8,-12.1 3649.9,-12.4 3649.9,-11.2 3652.9,-11.3 3653.5,3.9 3643.6,4.2 "/>
<polygon fill="#E1F5E6" stroke="#0A4650" stroke-width="0.5" stroke-linecap="round" stroke-linejoin="round" stroke-miterlimit="10" points="
	3640.8,176.9 3625.3,176.6 3625.3,173.3 3640.8,173.5 "/>
<polygon fill="#FFFFFF" stroke="#0A4650" stroke-width="0.5" stroke-linecap="round" stroke-linejoin="round" stroke-miterlimit="10" points="
	3625.3,176.6 3624.7,161 3624.7,156.5 3625,164.3 3625,165.5 3625.3,173.3 "/>
<polygon fill="#FFFFFF" stroke="#0A4650" stroke-width="0.5" stroke-linecap="round" stroke-linejoin="round" stroke-miterlimit="10" points="
	3624.7,156.5 3640.3,158.5 3640.6,166.2 3625,164.3 "/>
<polygon fill="#E1F5E6" stroke="#0A4650" stroke-width="0.5" stroke-linecap="round" stroke-linejoin="round" stroke-miterlimit="10" points="
	3640.6,166.2 3640.6,167.4 3625,165.5 3625,164.3 "/>
<polygon fill="#FFFFFF" stroke="#0A4650" stroke-width="0.5" stroke-linecap="round" stroke-linejoin="round" stroke-miterlimit="10" points="
	3625,165.5 3640.6,167.4 3640.8,173.5 3625.3,173.3 "/>
<polygon fill="#FFFFFF" stroke="#0A4650" stroke-width="0.5" stroke-linecap="round" stroke-linejoin="round" stroke-miterlimit="10" points="
	3630.6,196.2 3630.2,181.6 3644.1,181.2 3644.5,196 "/>
<polygon fill="#FFFFFF" stroke="#0A4650" stroke-width="0.5" stroke-linecap="round" stroke-linejoin="round" stroke-miterlimit="10" points="
	3630.2,181.6 3630.6,196.2 3630.6,199.5 3630.2,185 "/>
<polygon fill="#E1F5E6" stroke="#0A4650" stroke-width="0.5" stroke-linecap="round" stroke-linejoin="round" stroke-miterlimit="10" points="
	3630.6,196.2 3644.5,196 3644.5,199.4 3630.6,199.5 "/>
<polygon fill="#E1F5E6" stroke="#0A4650" stroke-width="0.5" stroke-linecap="round" stroke-linejoin="round" stroke-miterlimit="10" points="
	3660.5,196.3 3647.1,196.6 3647.1,193.3 3660.5,192.9 "/>
<polygon fill="#FFFFFF" stroke="#0A4650" stroke-width="0.5" stroke-linecap="round" stroke-linejoin="round" stroke-miterlimit="10" points="
	3647.1,196.6 3646.7,180.3 3646.7,177 3647.1,193.3 "/>
<rect x="3646.9" y="176.8" transform="matrix(-0.9997 2.500146e-002 -2.500146e-002 -0.9997 7310.5938 278.5619)" fill="#FFFFFF" stroke="#0A4650" stroke-width="0.5" stroke-linecap="round" stroke-linejoin="round" stroke-miterlimit="10" width="13.4" height="16.3"/>
<polygon fill="#E1F5E6" stroke="#0A4650" stroke-width="0.5" stroke-linecap="round" stroke-linejoin="round" stroke-miterlimit="10" points="
	3401.9,101.4 3379.6,101.9 3379.6,93.9 3401.9,93.4 "/>
<polygon fill="#FFFFFF" stroke="#0A4650" stroke-width="0.5" stroke-linecap="round" stroke-linejoin="round" stroke-miterlimit="10" points="
	3401.9,101.4 3401.9,93.4 3402.4,81.9 3402.4,89.8 "/>
<polygon fill="#FFFFFF" stroke="#0A4650" stroke-width="0.5" stroke-linecap="round" stroke-linejoin="round" stroke-miterlimit="10" points="
	3401.9,93.4 3379.6,93.9 3379.8,80.9 3402.4,81.9 "/>
<polygon fill="#FFFFFF" stroke="#0A4650" stroke-width="0.5" stroke-linecap="round" stroke-linejoin="round" stroke-miterlimit="10" points="
	3402.4,89.8 3402.4,81.9 3402.4,81.2 3402.8,70.5 3402.8,79.2 "/>
<polygon fill="#E1F5E6" stroke="#0A4650" stroke-width="0.5" stroke-linecap="round" stroke-linejoin="round" stroke-miterlimit="10" points="
	3402.4,81.2 3402.4,81.9 3379.8,80.9 3379.8,80.3 "/>
<polygon fill="#FFFFFF" stroke="#0A4650" stroke-width="0.5" stroke-linecap="round" stroke-linejoin="round" stroke-miterlimit="10" points="
	3379.8,80.3 3380,69.6 3402.8,70.5 3402.4,81.2 "/>
<polygon fill="#FFFFFF" stroke="#0A4650" stroke-width="0.5" stroke-linecap="round" stroke-linejoin="round" stroke-miterlimit="10" points="
	3380.2,53.4 3380.2,53.4 3403.5,54.3 3402.8,69.9 3380,68.9 "/>
<polygon fill="#FFFFFF" stroke="#0A4650" stroke-width="0.5" stroke-linecap="round" stroke-linejoin="round" stroke-miterlimit="10" points="
	3403.5,54.3 3380.2,53.4 3380.4,33 3404.4,31.9 3403.5,55 "/>
<polygon fill="#E1F5E6" stroke="#0A4650" stroke-width="0.5" stroke-linecap="round" stroke-linejoin="round" stroke-miterlimit="10" points="
	3402.8,70.5 3380,69.6 3380,68.9 3402.8,69.9 "/>
<polygon fill="#FFFFFF" stroke="#0A4650" stroke-width="0.5" stroke-linecap="round" stroke-linejoin="round" stroke-miterlimit="10" points="
	3402.8,79.2 3402.8,70.5 3402.8,69.9 3403.5,54.3 3403.5,55 3403.5,63.7 "/>
<polygon fill="#FFFFFF" stroke="#0A4650" stroke-width="0.5" stroke-linecap="round" stroke-linejoin="round" stroke-miterlimit="10" points="
	3404.4,40.5 3403.5,63.7 3403.5,55 3404.4,31.9 "/>
<polygon fill="#E1F5E6" stroke="#0A4650" stroke-width="0.5" stroke-linecap="round" stroke-linejoin="round" stroke-miterlimit="10" points="
	3375.5,102.1 3332.6,104.2 3332.6,99.2 3375.5,97.1 "/>
<polygon fill="#FFFFFF" stroke="#0A4650" stroke-width="0.5" stroke-linecap="round" stroke-linejoin="round" stroke-miterlimit="10" points="
	3332.4,86.8 3355.7,86.5 3355.7,86.5 3355.7,84.6 3372.8,84.3 3375.2,87.7 3375.5,97.1 3332.6,99.2 "/>
<polygon fill="#FFFFFF" stroke="#0A4650" stroke-width="0.5" stroke-linecap="round" stroke-linejoin="round" stroke-miterlimit="10" points="
	3355.7,86.5 3355.7,86.5 3355.7,84.6 "/>
<polygon fill="#FFFFFF" stroke="#0A4650" stroke-width="0.5" stroke-linecap="round" stroke-linejoin="round" stroke-miterlimit="10" points="
	3332.6,104.2 3332.4,91.8 3332.4,86.8 3332.6,99.2 "/>
<polygon fill="#FFFFFF" stroke="#0A4650" stroke-width="0.5" stroke-linecap="round" stroke-linejoin="round" stroke-miterlimit="10" points="
	3363.2,204.9 3363.6,200.1 3364.1,194.3 3361.8,194.1 3362.4,186.1 3390.3,188.4 3389.5,198.2 3386,197.9 3385.3,206.8 "/>
<polygon fill="#E1F5E6" stroke="#0A4650" stroke-width="0.5" stroke-linecap="round" stroke-linejoin="round" stroke-miterlimit="10" points="
	3364.1,194.3 3363.6,200.1 3361.8,199.9 3361.8,194.1 "/>
<polygon fill="#FFFFFF" stroke="#0A4650" stroke-width="0.5" stroke-linecap="round" stroke-linejoin="round" stroke-miterlimit="10" points="
	3390.3,194.2 3389.5,204 3389.5,198.2 3390.3,188.4 "/>
<polygon fill="#E1F5E6" stroke="#0A4650" stroke-width="0.5" stroke-linecap="round" stroke-linejoin="round" stroke-miterlimit="10" points="
	3389.5,198.2 3389.5,204 3386,203.7 3386,197.9 "/>
<polygon fill="#FFFFFF" stroke="#0A4650" stroke-width="0.5" stroke-linecap="round" stroke-linejoin="round" stroke-miterlimit="10" points="
	3386,197.9 3386,203.7 3385.3,212.6 3385.3,206.8 "/>
<polygon fill="#E1F5E6" stroke="#0A4650" stroke-width="0.5" stroke-linecap="round" stroke-linejoin="round" stroke-miterlimit="10" points="
	3363.2,204.9 3385.3,206.8 3385.3,212.6 3363.2,210.8 "/>
<polygon fill="#FFFFFF" stroke="#0A4650" stroke-width="0.5" stroke-linecap="round" stroke-linejoin="round" stroke-miterlimit="10" points="
	3301.6,183.4 3308.6,182.9 3308.7,182.9 3308.6,181.5 3312.6,181.2 3312.9,184.8 3313,186.9 3314,187.8 3314.4,193.9 3317.8,193.7 
	3318,193.7 3317.6,187.6 3318.2,186.8 3318.5,186.6 3318.1,180.8 3322.1,180.5 3322.2,182 3329.2,181.5 3329.4,183.9 3331.2,183.8 
	3331.5,188.5 3332.5,189.4 3332.7,191.7 3331.8,192.7 3331.9,193.8 3332.7,194.5 3332.9,194.7 3333.3,200 3332.4,201 3332.8,206.6 
	3324.5,207.1 3324.1,201.6 3323.3,202.6 3319.8,202.8 3318.8,202 3314.8,202.3 3313.9,203.3 3310.5,203.5 3309.5,202.6 
	3309.9,208.2 3301.6,208.7 3301.2,203.2 3300.2,202.3 3299.8,197 3300.6,196.1 3300.7,196 3300.6,194.9 3299.6,194 3299.5,191.7 
	3300,191.1 3300.3,190.7 3300,186 3301.6,185.8 3301.8,185.8 "/>
<polygon fill="#FFFFFF" stroke="#0A4650" stroke-width="0.5" stroke-linecap="round" stroke-linejoin="round" stroke-miterlimit="10" points="
	3300.6,196.1 3299.8,197 3299.8,202.2 3299.6,202 3299.6,194 3300.6,194.9 "/>
<polygon fill="#FFFFFF" stroke="#0A4650" stroke-width="0.5" stroke-linecap="round" stroke-linejoin="round" stroke-miterlimit="10" points="
	3299.8,202.2 3299.8,197 3300.2,202.3 3300.2,210.3 3299.8,205 "/>
<polygon fill="#FFFFFF" stroke="#0A4650" stroke-width="0.5" stroke-linecap="round" stroke-linejoin="round" stroke-miterlimit="10" points="
	3318.2,186.8 3317.6,187.6 3317.6,191.2 3317.8,193.7 3314.4,193.9 3314,187.8 3313,186.9 3312.9,184.8 3318.1,184.5 "/>
<polygon fill="#FFFFFF" stroke="#0A4650" stroke-width="0.5" stroke-linecap="round" stroke-linejoin="round" stroke-miterlimit="10" points="
	3308.7,182.9 3308.6,182.9 3308.6,181.5 "/>
<polygon fill="#FFFFFF" stroke="#0A4650" stroke-width="0.5" stroke-linecap="round" stroke-linejoin="round" stroke-miterlimit="10" points="
	3318.1,184.5 3318.1,180.8 3318.5,186.6 3318.2,186.8 "/>
<polygon fill="#FFFFFF" stroke="#0A4650" stroke-width="0.5" stroke-linecap="round" stroke-linejoin="round" stroke-miterlimit="10" points="
	3317.6,191.2 3317.6,187.6 3318,193.7 3317.8,193.7 "/>
<polygon fill="#FFFFFF" stroke="#0A4650" stroke-width="0.5" stroke-linecap="round" stroke-linejoin="round" stroke-miterlimit="10" points="
	3332.4,201 3333.3,200 3333.3,208 3332.8,208.6 3332.8,206.6 "/>
<polygon fill="#E1F5E6" stroke="#0A4650" stroke-width="0.5" stroke-linecap="round" stroke-linejoin="round" stroke-miterlimit="10" points="
	3332.8,206.6 3332.8,208.6 3332.8,214.5 3324.5,215.1 3324.5,207.1 "/>
<polygon fill="#FFFFFF" stroke="#0A4650" stroke-width="0.5" stroke-linecap="round" stroke-linejoin="round" stroke-miterlimit="10" points="
	3318.8,202 3319.8,202.8 3319.8,210.8 3318.8,210 "/>
<polygon fill="#E1F5E6" stroke="#0A4650" stroke-width="0.5" stroke-linecap="round" stroke-linejoin="round" stroke-miterlimit="10" points="
	3318.8,202 3318.8,210 3314.8,210.2 3314.8,202.3 "/>
<polygon fill="#FFFFFF" stroke="#0A4650" stroke-width="0.5" stroke-linecap="round" stroke-linejoin="round" stroke-miterlimit="10" points="
	3332.7,194.5 3331.9,193.8 3331.8,192.7 3332.7,191.7 "/>
<polygon fill="#FFFFFF" stroke="#0A4650" stroke-width="0.5" stroke-linecap="round" stroke-linejoin="round" stroke-miterlimit="10" points="
	3301.6,183.4 3301.8,185.8 3301.6,185.8 "/>
<polygon fill="#FFFFFF" stroke="#0A4650" stroke-width="0.5" stroke-linecap="round" stroke-linejoin="round" stroke-miterlimit="10" points="
	3324.1,201.6 3324.5,207.1 3324.5,215.1 3324.1,209.6 "/>
<polygon fill="#E1F5E6" stroke="#0A4650" stroke-width="0.5" stroke-linecap="round" stroke-linejoin="round" stroke-miterlimit="10" points="
	3319.8,202.8 3323.3,202.6 3323.3,210.6 3319.8,210.8 "/>
<polygon fill="#FFFFFF" stroke="#0A4650" stroke-width="0.5" stroke-linecap="round" stroke-linejoin="round" stroke-miterlimit="10" points="
	3323.3,202.6 3324.1,201.6 3324.1,209.6 3323.3,210.6 "/>
<polygon fill="#FFFFFF" stroke="#0A4650" stroke-width="0.5" stroke-linecap="round" stroke-linejoin="round" stroke-miterlimit="10" points="
	3300,191.1 3300,186 3300.3,190.7 "/>
<polygon fill="#FFFFFF" stroke="#0A4650" stroke-width="0.5" stroke-linecap="round" stroke-linejoin="round" stroke-miterlimit="10" points="
	3299.5,199.7 3299.5,191.7 3299.6,194 3299.6,202 "/>
<polygon fill="#FFFFFF" stroke="#0A4650" stroke-width="0.5" stroke-linecap="round" stroke-linejoin="round" stroke-miterlimit="10" points="
	3300.6,196.1 3300.6,194.9 3300.7,196 "/>
<polygon fill="#E1F5E6" stroke="#0A4650" stroke-width="0.5" stroke-linecap="round" stroke-linejoin="round" stroke-miterlimit="10" points="
	3309.9,210.9 3309.9,216.1 3301.6,216.7 3301.6,208.7 3309.9,208.2 "/>
<polygon fill="#FFFFFF" stroke="#0A4650" stroke-width="0.5" stroke-linecap="round" stroke-linejoin="round" stroke-miterlimit="10" points="
	3309.9,210.9 3309.9,208.2 3309.5,202.6 3310.5,203.5 3310.5,211.5 "/>
<polygon fill="#FFFFFF" stroke="#0A4650" stroke-width="0.5" stroke-linecap="round" stroke-linejoin="round" stroke-miterlimit="10" points="
	3300.2,210.3 3300.2,202.3 3301.2,203.2 3301.2,211.2 "/>
<polygon fill="#FFFFFF" stroke="#0A4650" stroke-width="0.5" stroke-linecap="round" stroke-linejoin="round" stroke-miterlimit="10" points="
	3301.2,211.2 3301.2,203.2 3301.6,208.7 3301.6,216.7 "/>
<polygon fill="#E1F5E6" stroke="#0A4650" stroke-width="0.5" stroke-linecap="round" stroke-linejoin="round" stroke-miterlimit="10" points="
	3310.5,211.5 3310.5,203.5 3313.9,203.3 3313.9,211.2 "/>
<polygon fill="#FFFFFF" stroke="#0A4650" stroke-width="0.5" stroke-linecap="round" stroke-linejoin="round" stroke-miterlimit="10" points="
	3313.9,211.2 3313.9,203.3 3314.8,202.3 3314.8,210.2 "/>
<polygon fill="#E1F5E6" stroke="#0A4650" stroke-width="0.5" stroke-linecap="round" stroke-linejoin="round" stroke-miterlimit="10" points="
	3530.6,161.7 3530.6,163.4 3530.6,167 3523.1,167 3523.1,163.4 3523.1,161.7 "/>
<polygon fill="#E1F5E6" stroke="#0A4650" stroke-width="0.5" stroke-linecap="round" stroke-linejoin="round" stroke-miterlimit="10" points="
	3515.9,202.6 3515.9,199.4 3515.9,195.8 3522.5,195.8 3522.5,202.6 "/>
<polygon fill="#FFFFFF" stroke="#0A4650" stroke-width="0.5" stroke-linecap="round" stroke-linejoin="round" stroke-miterlimit="10" points="
	3543.6,168.1 3544.7,168 3546.2,168.2 3547.6,168.8 3548.8,169.7 3549.7,170.9 3550.3,172.3 3550.5,173.8 3550.3,175.2 
	3549.7,176.6 3548.8,177.8 3547.6,178.7 3546.2,179.3 3544.7,179.5 3543.2,179.3 3541.8,178.7 3540.6,177.8 3539.7,176.6 
	3539.1,175.2 3538.9,173.8 3539.1,172.3 3539.7,170.9 3540.6,169.7 3541.8,168.8 3543.2,168.2 "/>
<polygon fill="#FFFFFF" stroke="#0A4650" stroke-width="0.5" stroke-linecap="round" stroke-linejoin="round" stroke-miterlimit="10" points="
	3543.6,168.1 3543.2,168.2 3541.8,168.8 3540.6,169.7 3539.7,170.9 3539.1,172.3 3538.9,173.8 3538.9,177.1 3539.1,178.7 
	3539.7,180.4 3540.6,182.1 3541.8,183.6 3543.2,185 3543.6,185.2 3543.6,192 3543.6,192.6 3541.7,189.4 3541.7,189.9 3540.2,189.1 
	3540.2,186.9 3535,177.9 3535,172.2 3540.2,168.7 3540.2,166.5 3541.7,167.3 3541.7,167.8 3543.6,166.5 "/>
<polygon fill="#E1F5E6" stroke="#0A4650" stroke-width="0.5" stroke-linecap="round" stroke-linejoin="round" stroke-miterlimit="10" points="
	3496.6,190.1 3496.6,181.6 3501.5,181.6 3498.3,183.3 3498.3,189.7 3498.3,190.1 "/>
<polygon fill="#E1F5E6" stroke="#0A4650" stroke-width="0.5" stroke-linecap="round" stroke-linejoin="round" stroke-miterlimit="10" points="
	3550.3,175.2 3549.7,176.6 3548.8,177.8 3547.6,178.7 3546.2,179.3 3544.7,179.5 3543.2,179.3 3541.8,178.7 3540.6,177.8 
	3539.7,176.6 3539.1,175.2 3538.9,173.8 3538.9,177.1 3539.1,178.7 3539.7,180.4 3540.6,182.1 3541.8,183.6 3543.2,185 
	3543.6,185.2 3543.6,192 3544.7,192.2 3546.2,192 3547.6,191.4 3548.8,190.5 3549.7,189.3 3550.3,187.9 3550.5,186.4 3550.5,173.8 
	"/>
<polygon fill="#FFFFFF" stroke="#0A4650" stroke-width="0.5" stroke-linecap="round" stroke-linejoin="round" stroke-miterlimit="10" points="
	3530.6,154.2 3530.6,161.7 3526.8,151.3 "/>
<polygon fill="#FFFFFF" stroke="#0A4650" stroke-width="0.5" stroke-linecap="round" stroke-linejoin="round" stroke-miterlimit="10" points="
	3523.1,161.7 3523.1,154.2 3526.8,151.3 "/>
<polygon fill="#E1F5E6" stroke="#0A4650" stroke-width="0.5" stroke-linecap="round" stroke-linejoin="round" stroke-miterlimit="10" points="
	3530.6,161.7 3523.1,161.7 3526.8,151.3 "/>
<polygon fill="#FFFFFF" stroke="#0A4650" stroke-width="0.5" stroke-linecap="round" stroke-linejoin="round" stroke-miterlimit="10" points="
	3530.6,167 3530.6,163.4 3533.2,163.4 3533.2,163.4 3533.1,163.7 3533,164.1 3533,164.6 3534.5,165.6 3526.8,170.6 3519.2,165.6 
	3520.7,164.6 3520.7,164.1 3520.6,163.7 3520.5,163.4 3520.5,163.4 3523.1,163.4 3523.1,167 "/>
<polygon fill="#FFFFFF" stroke="#0A4650" stroke-width="0.5" stroke-linecap="round" stroke-linejoin="round" stroke-miterlimit="10" points="
	3520.7,164.1 3520.7,164.6 3519.2,165.6 3519.2,163.3 "/>
<polygon fill="#E1F5E6" stroke="#0A4650" stroke-width="0.5" stroke-linecap="round" stroke-linejoin="round" stroke-miterlimit="10" points="
	3510.1,199.4 3510.1,196.6 3510.1,192.6 3515.9,192.6 3515.9,195.8 3515.9,199.4 "/>
<polygon fill="#E1F5E6" stroke="#0A4650" stroke-width="0.5" stroke-linecap="round" stroke-linejoin="round" stroke-miterlimit="10" points="
	3510.1,192.6 3510.1,196.6 3498.3,196.6 3498.3,190.1 3498.3,189.7 3501.5,188.1 3504.7,189.7 3510.1,189.7 "/>
<polygon fill="#FFFFFF" stroke="#0A4650" stroke-width="0.5" stroke-linecap="round" stroke-linejoin="round" stroke-miterlimit="10" points="
	3510.1,192.6 3510.1,189.7 3518.7,175 3518.7,177.9 3513.5,186.9 3513.5,189.1 3512,189.9 3512,189.4 "/>
<polygon fill="#FFFFFF" stroke="#0A4650" stroke-width="0.5" stroke-linecap="round" stroke-linejoin="round" stroke-miterlimit="10" points="
	3515.9,192.6 3510.1,192.6 3512,189.4 3512,189.9 3512,190.1 3512.1,190.7 3512.2,191.2 3512.4,191.6 3512.7,191.9 3513.1,192.1 
	3513.5,192.2 3513.8,192.1 3514.2,191.9 3514.5,191.6 3514.7,191.2 3514.8,190.7 3514.9,190.1 3514.9,189.9 3514.9,189.4 
	3513.5,186.9 3518.7,177.9 3524.4,177.9 "/>
<polygon fill="#E1F5E6" stroke="#0A4650" stroke-width="0.5" stroke-linecap="round" stroke-linejoin="round" stroke-miterlimit="10" points="
	3543.6,199.4 3537.8,199.4 3537.8,195.8 3537.8,192.6 3543.6,192.6 "/>
<polygon fill="#E1F5E6" stroke="#0A4650" stroke-width="0.5" stroke-linecap="round" stroke-linejoin="round" stroke-miterlimit="10" points="
	3537.8,195.8 3537.8,199.4 3537.8,202.6 3531.2,202.6 3531.2,195.8 "/>
<polygon fill="#FFFFFF" stroke="#0A4650" stroke-width="0.5" stroke-linecap="round" stroke-linejoin="round" stroke-miterlimit="10" points="
	3543.6,192.6 3537.8,192.6 3529.3,177.9 3535,177.9 3540.2,186.9 3538.8,189.4 3538.8,189.9 3538.8,190.1 3538.8,190.7 3539,191.2 
	3539.2,191.6 3539.5,191.9 3539.9,192.1 3540.2,192.2 3540.6,192.1 3541,191.9 3541.3,191.6 3541.5,191.2 3541.6,190.7 
	3541.7,190.1 3541.7,189.9 3541.7,189.4 "/>
<polygon fill="#FFFFFF" stroke="#0A4650" stroke-width="0.5" stroke-linecap="round" stroke-linejoin="round" stroke-miterlimit="10" points="
	3510.1,189.7 3504.7,189.7 3501.5,184.3 3506.9,175 3518.7,175 "/>
<polygon fill="#FFFFFF" stroke="#0A4650" stroke-width="0.5" stroke-linecap="round" stroke-linejoin="round" stroke-miterlimit="10" points="
	3515.9,195.8 3515.9,192.6 3524.4,177.9 3524.4,172.2 3515.9,166.5 3515.9,163.4 3517.8,164.6 3517.8,164.1 3519.2,163.3 
	3519.2,165.6 3526.8,170.6 3526.8,176.9 3519.2,190.1 3519.2,192.3 3517.8,193.1 3517.8,192.6 "/>
<polygon fill="#FFFFFF" stroke="#0A4650" stroke-width="0.5" stroke-linecap="round" stroke-linejoin="round" stroke-miterlimit="10" points="
	3537.8,192.6 3537.8,195.8 3535.9,192.6 3535.9,193.1 3534.5,192.3 3534.5,190.1 3526.8,176.9 3526.8,170.6 3534.5,165.6 
	3534.5,163.3 3535.9,164.1 3535.9,164.6 3537.8,163.4 3537.8,166.5 3529.3,172.2 3529.3,177.9 "/>
<polygon fill="#FFFFFF" stroke="#0A4650" stroke-width="0.5" stroke-linecap="round" stroke-linejoin="round" stroke-miterlimit="10" points="
	3522.5,195.8 3515.9,195.8 3517.8,192.6 3517.8,193.1 3517.8,193.3 3517.8,193.8 3518,194.3 3518.2,194.8 3518.5,195.1 
	3518.8,195.3 3519.2,195.4 3519.6,195.3 3519.9,195.1 3520.2,194.8 3520.5,194.3 3520.6,193.8 3520.7,193.3 3520.7,193.1 
	3520.7,192.6 3519.2,190.1 3526.8,176.9 3534.5,190.1 3533,192.6 3533,193.1 3533,193.3 3533.1,193.8 3533.2,194.3 3533.5,194.8 
	3533.8,195.1 3534.1,195.3 3534.5,195.4 3534.9,195.3 3535.2,195.1 3535.5,194.8 3535.7,194.3 3535.9,193.8 3535.9,193.3 
	3535.9,193.1 3535.9,192.6 3537.8,195.8 3531.2,195.8 3531.2,195.6 3531.2,192.5 3526.8,185 3522.5,192.5 3522.5,195.6 "/>
<polygon fill="#E1F5E6" stroke="#0A4650" stroke-width="0.5" stroke-linecap="round" stroke-linejoin="round" stroke-miterlimit="10" points="
	3531.2,195.6 3531.2,195.8 3531.2,202.6 3531.2,203.5 3522.5,203.5 3522.5,202.6 3522.5,195.8 3522.5,195.6 3526.8,193.3 "/>
<polygon fill="#FFFFFF" stroke="#0A4650" stroke-width="0.5" stroke-linecap="round" stroke-linejoin="round" stroke-miterlimit="10" points="
	3498.3,189.7 3498.3,183.3 3501.5,181.6 3504.6,176.2 3506.9,175 3501.5,184.3 3501.5,188.1 "/>
<polygon fill="#FFFFFF" stroke="#0A4650" stroke-width="0.5" stroke-linecap="round" stroke-linejoin="round" stroke-miterlimit="10" points="
	3540.2,168.7 3535,172.2 3529.3,172.2 3537.8,166.5 3539,166.5 3539,166.5 3538.8,166.9 3538.8,167.3 3538.8,167.8 "/>
<rect x="3529.3" y="172.2" fill="#FFFFFF" stroke="#0A4650" stroke-width="0.5" stroke-linecap="round" stroke-linejoin="round" stroke-miterlimit="10" width="5.8" height="5.8"/>
<polygon fill="#FFFFFF" stroke="#0A4650" stroke-width="0.5" stroke-linecap="round" stroke-linejoin="round" stroke-miterlimit="10" points="
	3515.9,166.5 3524.4,172.2 3518.7,172.2 3513.5,168.7 3514.9,167.8 3514.9,167.3 3514.8,166.9 3514.7,166.5 3514.7,166.5 "/>
<polygon fill="#FFFFFF" stroke="#0A4650" stroke-width="0.5" stroke-linecap="round" stroke-linejoin="round" stroke-miterlimit="10" points="
	3524.4,172.2 3524.4,177.9 3518.7,177.9 3518.7,175 3518.7,172.2 "/>
<polygon fill="#FFFFFF" stroke="#0A4650" stroke-width="0.5" stroke-linecap="round" stroke-linejoin="round" stroke-miterlimit="10" points="
	3517.8,164.6 3515.9,163.4 3518,163.4 3518,163.4 3517.8,163.7 3517.8,164.1 "/>
<polygon fill="#FFFFFF" stroke="#0A4650" stroke-width="0.5" stroke-linecap="round" stroke-linejoin="round" stroke-miterlimit="10" points="
	3510.1,169.4 3510.1,166.5 3512,167.8 3512,167.3 3513.5,166.5 3513.5,168.7 3518.7,172.2 3518.7,175 "/>
<polygon fill="#FFFFFF" stroke="#0A4650" stroke-width="0.5" stroke-linecap="round" stroke-linejoin="round" stroke-miterlimit="10" points="
	3512,167.8 3510.1,166.5 3512.2,166.5 3512.2,166.5 3512.1,166.9 3512,167.3 "/>
<polygon fill="#FFFFFF" stroke="#0A4650" stroke-width="0.5" stroke-linecap="round" stroke-linejoin="round" stroke-miterlimit="10" points="
	3510.1,169.4 3518.7,175 3506.9,175 3501.5,171.5 3504.7,169.4 "/>
<polygon fill="#FFFFFF" stroke="#0A4650" stroke-width="0.5" stroke-linecap="round" stroke-linejoin="round" stroke-miterlimit="10" points="
	3498.3,169.4 3501.5,167.7 3501.5,171.5 3506.9,175 3504.6,176.2 3501.5,174.2 3498.3,174.2 "/>
<polygon fill="#FFFFFF" stroke="#0A4650" stroke-width="0.5" stroke-linecap="round" stroke-linejoin="round" stroke-miterlimit="10" points="
	3498.3,174.2 3501.5,174.2 3504.6,176.2 3496.6,176.2 3496.6,174.2 "/>
<polygon fill="#FFFFFF" stroke="#0A4650" stroke-width="0.5" stroke-linecap="round" stroke-linejoin="round" stroke-miterlimit="10" points="
	3501.5,167.7 3504.7,169.4 3501.5,171.5 "/>
<polygon fill="#FFFFFF" stroke="#0A4650" stroke-width="0.5" stroke-linecap="round" stroke-linejoin="round" stroke-miterlimit="10" points="
	3496.6,181.6 3496.6,176.2 3504.6,176.2 3501.5,181.6 "/>
<polygon fill="#FFFFFF" stroke="#0A4650" stroke-width="0.5" stroke-linecap="round" stroke-linejoin="round" stroke-miterlimit="10" points="
	3541.5,166.5 3543.6,166.5 3541.7,167.8 3541.7,167.3 3541.6,166.9 3541.5,166.5 "/>
<polygon fill="#FFFFFF" stroke="#0A4650" stroke-width="0.5" stroke-linecap="round" stroke-linejoin="round" stroke-miterlimit="10" points="
	3501.5,188.1 3501.5,184.3 3504.7,189.7 "/>
<polygon fill="#FFFFFF" stroke="#0A4650" stroke-width="0.5" stroke-linecap="round" stroke-linejoin="round" stroke-miterlimit="10" points="
	3522.5,195.6 3522.5,192.5 3526.8,185 3526.8,193.3 "/>
<polygon fill="#FFFFFF" stroke="#0A4650" stroke-width="0.5" stroke-linecap="round" stroke-linejoin="round" stroke-miterlimit="10" points="
	3531.2,192.5 3531.2,195.6 3526.8,193.3 3526.8,185 "/>
<polygon fill="#FFFFFF" stroke="#0A4650" stroke-width="0.5" stroke-linecap="round" stroke-linejoin="round" stroke-miterlimit="10" points="
	3535.7,163.4 3537.8,163.4 3535.9,164.6 3535.9,164.1 3535.9,163.7 3535.7,163.4 "/>
<polygon fill="#FFFFFF" stroke="#0A4650" stroke-width="0.5" stroke-linecap="round" stroke-linejoin="round" stroke-miterlimit="10" points="
	3538.8,189.9 3538.8,189.4 3540.2,186.9 3540.2,189.1 "/>
<polygon fill="#E1F5E6" stroke="#0A4650" stroke-width="0.5" stroke-linecap="round" stroke-linejoin="round" stroke-miterlimit="10" points="
	3541.6,190.3 3541.5,190.6 3541.3,190.9 3541,191.1 3540.6,191.3 3540.2,191.3 3539.9,191.3 3539.5,191.1 3539.2,190.9 3539,190.6 
	3538.8,190.3 3538.8,189.9 3538.8,190.1 3538.8,190.7 3539,191.2 3539.2,191.6 3539.5,191.9 3539.9,192.1 3540.2,192.2 
	3540.6,192.1 3541,191.9 3541.3,191.6 3541.5,191.2 3541.6,190.7 3541.7,190.1 3541.7,189.9 "/>
<polygon fill="#FFFFFF" stroke="#0A4650" stroke-width="0.5" stroke-linecap="round" stroke-linejoin="round" stroke-miterlimit="10" points="
	3540.2,189.1 3538.8,189.9 3538.8,190.3 3539,190.6 3539.2,190.9 3539.5,191.1 3539.9,191.3 3540.2,191.3 3540.6,191.3 3541,191.1 
	3541.3,190.9 3541.5,190.6 3541.6,190.3 3541.7,189.9 "/>
<polygon fill="#FFFFFF" stroke="#0A4650" stroke-width="0.5" stroke-linecap="round" stroke-linejoin="round" stroke-miterlimit="10" points="
	3533,193.1 3533,192.6 3534.5,190.1 3534.5,192.3 "/>
<polygon fill="#E1F5E6" stroke="#0A4650" stroke-width="0.5" stroke-linecap="round" stroke-linejoin="round" stroke-miterlimit="10" points="
	3535.9,193.4 3535.7,193.8 3535.5,194.1 3535.2,194.3 3534.9,194.5 3534.5,194.5 3534.1,194.5 3533.8,194.3 3533.5,194.1 
	3533.2,193.8 3533.1,193.4 3533,193.1 3533,193.3 3533.1,193.8 3533.2,194.3 3533.5,194.8 3533.8,195.1 3534.1,195.3 3534.5,195.4 
	3534.9,195.3 3535.2,195.1 3535.5,194.8 3535.7,194.3 3535.9,193.8 3535.9,193.3 3535.9,193.1 "/>
<polygon fill="#FFFFFF" stroke="#0A4650" stroke-width="0.5" stroke-linecap="round" stroke-linejoin="round" stroke-miterlimit="10" points="
	3534.5,192.3 3533,193.1 3533.1,193.4 3533.1,193.4 3533.2,193.8 3533.5,194.1 3533.8,194.3 3534.1,194.5 3534.5,194.5 
	3534.9,194.5 3535.2,194.3 3535.5,194.1 3535.7,193.8 3535.9,193.4 3535.9,193.1 "/>
<polygon fill="#FFFFFF" stroke="#0A4650" stroke-width="0.5" stroke-linecap="round" stroke-linejoin="round" stroke-miterlimit="10" points="
	3513.5,189.1 3512,189.9 3512.1,190.3 3512.2,190.6 3512.4,190.9 3512.7,191.1 3513.1,191.3 3513.5,191.3 3513.8,191.3 
	3514.2,191.1 3514.5,190.9 3514.7,190.6 3514.8,190.3 3514.9,189.9 "/>
<polygon fill="#FFFFFF" stroke="#0A4650" stroke-width="0.5" stroke-linecap="round" stroke-linejoin="round" stroke-miterlimit="10" points="
	3514.9,189.9 3513.5,189.1 3513.5,186.9 3514.9,189.4 "/>
<polygon fill="#E1F5E6" stroke="#0A4650" stroke-width="0.5" stroke-linecap="round" stroke-linejoin="round" stroke-miterlimit="10" points="
	3514.8,190.3 3514.7,190.6 3514.5,190.9 3514.2,191.1 3513.8,191.3 3513.5,191.3 3513.1,191.3 3512.7,191.1 3512.4,190.9 
	3512.2,190.6 3512.1,190.3 3512,189.9 3512,190.1 3512.1,190.7 3512.2,191.2 3512.4,191.6 3512.7,191.9 3513.1,192.1 3513.5,192.2 
	3513.8,192.1 3514.2,191.9 3514.5,191.6 3514.7,191.2 3514.8,190.7 3514.9,190.1 3514.9,189.9 "/>
<polygon fill="#FFFFFF" stroke="#0A4650" stroke-width="0.5" stroke-linecap="round" stroke-linejoin="round" stroke-miterlimit="10" points="
	3540.2,166.5 3540.2,168.7 3538.8,167.8 3538.8,167.3 "/>
<polygon fill="#FFFFFF" stroke="#0A4650" stroke-width="0.5" stroke-linecap="round" stroke-linejoin="round" stroke-miterlimit="10" points="
	3520.6,163.7 3520.5,163.4 3520.5,163.4 3520.2,163.1 3519.9,162.8 3519.6,162.7 3519.2,162.7 3518.8,162.7 3518.5,162.8 
	3518.2,163.1 3518,163.4 3518,163.4 3517.8,163.7 3517.8,164.1 3519.2,163.3 3520.7,164.1 "/>
<polygon fill="#FFFFFF" stroke="#0A4650" stroke-width="0.5" stroke-linecap="round" stroke-linejoin="round" stroke-miterlimit="10" points="
	3541.6,166.9 3541.5,166.5 3541.5,166.5 3541.3,166.2 3541,166 3540.6,165.9 3540.2,165.8 3539.9,165.9 3539.5,166 3539.2,166.2 
	3539,166.5 3539,166.5 3538.8,166.9 3538.8,167.3 3540.2,166.5 3541.7,167.3 "/>
<polygon fill="#FFFFFF" stroke="#0A4650" stroke-width="0.5" stroke-linecap="round" stroke-linejoin="round" stroke-miterlimit="10" points="
	3533,164.6 3533,164.1 3534.5,163.3 3534.5,165.6 "/>
<polygon fill="#FFFFFF" stroke="#0A4650" stroke-width="0.5" stroke-linecap="round" stroke-linejoin="round" stroke-miterlimit="10" points="
	3535.9,163.7 3535.7,163.4 3535.7,163.4 3535.5,163.1 3535.2,162.8 3534.9,162.7 3534.5,162.7 3534.1,162.7 3533.8,162.8 
	3533.5,163.1 3533.2,163.4 3533.2,163.4 3533.1,163.7 3533,164.1 3534.5,163.3 3535.9,164.1 "/>
<polygon fill="#FFFFFF" stroke="#0A4650" stroke-width="0.5" stroke-linecap="round" stroke-linejoin="round" stroke-miterlimit="10" points="
	3514.9,167.8 3513.5,168.7 3513.5,166.5 3514.9,167.3 "/>
<polygon fill="#FFFFFF" stroke="#0A4650" stroke-width="0.5" stroke-linecap="round" stroke-linejoin="round" stroke-miterlimit="10" points="
	3514.8,166.9 3514.7,166.5 3514.7,166.5 3514.5,166.2 3514.2,166 3513.8,165.9 3513.5,165.8 3513.1,165.9 3512.7,166 3512.4,166.2 
	3512.2,166.5 3512.2,166.5 3512.1,166.9 3512,167.3 3513.5,166.5 3514.9,167.3 "/>
<polygon fill="#FFFFFF" stroke="#0A4650" stroke-width="0.5" stroke-linecap="round" stroke-linejoin="round" stroke-miterlimit="10" points="
	3520.7,192.6 3520.7,193.1 3519.2,192.3 3519.2,190.1 "/>
<polygon fill="#FFFFFF" stroke="#0A4650" stroke-width="0.5" stroke-linecap="round" stroke-linejoin="round" stroke-miterlimit="10" points="
	3519.2,192.3 3517.8,193.1 3517.8,193.4 3518,193.8 3518.2,194.1 3518.5,194.3 3518.8,194.5 3519.2,194.5 3519.6,194.5 
	3519.9,194.3 3520.2,194.1 3520.5,193.8 3520.6,193.4 3520.7,193.1 "/>
<polygon fill="#E1F5E6" stroke="#0A4650" stroke-width="0.5" stroke-linecap="round" stroke-linejoin="round" stroke-miterlimit="10" points="
	3520.6,193.4 3520.5,193.8 3520.2,194.1 3519.9,194.3 3519.6,194.5 3519.2,194.5 3518.8,194.5 3518.5,194.3 3518.2,194.1 
	3518,193.8 3517.8,193.4 3517.8,193.1 3517.8,193.3 3517.8,193.8 3518,194.3 3518.2,194.8 3518.5,195.1 3518.8,195.3 3519.2,195.4 
	3519.6,195.3 3519.9,195.1 3520.2,194.8 3520.5,194.3 3520.6,193.8 3520.7,193.3 3520.7,193.1 "/>
<polygon fill="#E1F5E6" stroke="#0A4650" stroke-width="0.5" stroke-linecap="round" stroke-linejoin="round" stroke-miterlimit="10" points="
	3298.6,209 3298.6,217 3280.4,218.1 3280.4,210.2 "/>
<polygon fill="#FFFFFF" stroke="#0A4650" stroke-width="0.5" stroke-linecap="round" stroke-linejoin="round" stroke-miterlimit="10" points="
	3283.3,182.6 3296.9,181.7 3298.6,209 3280.4,210.2 3279.8,200.7 3284.2,200.4 3284.5,200.4 "/>
<polygon fill="#FFFFFF" stroke="#0A4650" stroke-width="0.5" stroke-linecap="round" stroke-linejoin="round" stroke-miterlimit="10" points="
	3284.5,200.4 3284.2,200.4 3283.3,186.2 3283.3,182.6 "/>
<polygon fill="#FFFFFF" stroke="#0A4650" stroke-width="0.5" stroke-linecap="round" stroke-linejoin="round" stroke-miterlimit="10" points="
	3284.2,200.4 3279.8,200.7 3279.8,204.3 3278.7,186.5 3283.3,186.2 "/>
<polygon fill="#FFFFFF" stroke="#0A4650" stroke-width="0.5" stroke-linecap="round" stroke-linejoin="round" stroke-miterlimit="10" points="
	3280.4,210.2 3280.4,218.1 3278.7,190.8 3278.7,186.5 3279.8,204.3 3279.8,200.7 "/>
<polygon fill="#E1F5E6" stroke="#0A4650" stroke-width="0.5" stroke-linecap="round" stroke-linejoin="round" stroke-miterlimit="10" points="
	3398.9,141.8 3336,138.3 3336,135.2 3336,132.5 3398.9,135.9 "/>
<polygon fill="#E1F5E6" stroke="#0A4650" stroke-width="0.5" stroke-linecap="round" stroke-linejoin="round" stroke-miterlimit="10" points="
	3336,132.5 3336,135.2 3326.5,134.7 3326.5,128.9 3336.2,129.4 "/>
<polygon fill="#FFFFFF" stroke="#0A4650" stroke-width="0.5" stroke-linecap="round" stroke-linejoin="round" stroke-miterlimit="10" points="
	3326.5,134.7 3325.9,115.9 3325.9,110.1 3326.5,128.9 "/>
<polygon fill="#FFFFFF" stroke="#0A4650" stroke-width="0.5" stroke-linecap="round" stroke-linejoin="round" stroke-miterlimit="10" points="
	3326.5,128.9 3325.9,110.1 3393.3,107.8 3393.7,107.8 3394.2,107.9 3394.7,107.9 3395.1,108 3395.6,108.1 3396,108.3 3396.4,108.5 
	3396.8,108.7 3397.2,108.9 3397.6,109.2 3397.9,109.5 3398.2,109.8 3398.6,110.1 3398.8,110.4 3399.1,110.8 3399.3,111.2 
	3399.5,111.6 3399.7,112 3399.8,112.5 3399.9,112.9 3400,113.4 3400.1,113.8 3400.1,114.3 3400.1,114.8 3398.9,135.9 3336,132.5 
	3336.2,129.4 "/>
<polygon fill="#FFFFFF" stroke="#0A4650" stroke-width="0.5" stroke-linecap="round" stroke-linejoin="round" stroke-miterlimit="10" points="
	3400.1,114.8 3398.9,135.9 3398.9,141.8 3400.1,120.6 3400.1,120.1 3400.1,114.3 "/>
<polygon fill="#E1F5E6" stroke="#0A4650" stroke-width="0.5" stroke-linecap="round" stroke-linejoin="round" stroke-miterlimit="10" points="
	3405,8.4 3375.7,9.4 3375.7,-1.7 3381.4,-1.9 3381.4,-0.6 3401.6,-1.3 3401.6,0.5 3402.7,1.1 3403.9,1 3405,0.4 "/>
<polygon fill="#FFFFFF" stroke="#0A4650" stroke-width="0.5" stroke-linecap="round" stroke-linejoin="round" stroke-miterlimit="10" points="
	3375.4,-9.3 3375.8,-9.3 3376.1,-9.3 3381.2,-9.5 3381.4,-1.9 3375.7,-1.7 "/>
<polygon fill="#FFFFFF" stroke="#0A4650" stroke-width="0.5" stroke-linecap="round" stroke-linejoin="round" stroke-miterlimit="10" points="
	3381.2,-9.5 3376.1,-9.3 3375.8,-20.9 3385,-21.2 3385,-23 3384.6,-36.3 3376.3,-36 3375.5,-50.7 3403.8,-51.3 3404.9,-4.9 
	3405.5,-3.7 3405.6,-2.6 3405,-1.4 3403.9,-0.8 3402.7,-0.8 3401.6,-1.3 3381.4,-0.6 3381.4,-1.9 "/>
<polygon fill="#FFFFFF" stroke="#0A4650" stroke-width="0.5" stroke-linecap="round" stroke-linejoin="round" stroke-miterlimit="10" points="
	3376.3,-36 3384.6,-36.3 3385,-23 3375.8,-22.8 3375.4,-36 3375.7,-36 "/>
<polygon fill="#FFFFFF" stroke="#0A4650" stroke-width="0.5" stroke-linecap="round" stroke-linejoin="round" stroke-miterlimit="10" points="
	3376.1,-9.3 3375.8,-9.3 3375.4,-24.4 3375.4,-36 3375.8,-22.8 3375.8,-20.9 "/>
<polygon fill="#FFFFFF" stroke="#0A4650" stroke-width="0.5" stroke-linecap="round" stroke-linejoin="round" stroke-miterlimit="10" points="
	3376.3,-36 3375.7,-36 3375.5,-40.9 3375.5,-50.7 "/>
<polygon fill="#E1F5E6" stroke="#0A4650" stroke-width="0.5" stroke-linecap="round" stroke-linejoin="round" stroke-miterlimit="10" points="
	3405,-1.4 3405.6,-2.6 3405.6,-0.8 3405,0.4 "/>
<polygon fill="#E1F5E6" stroke="#0A4650" stroke-width="0.5" stroke-linecap="round" stroke-linejoin="round" stroke-miterlimit="10" points="
	3405,-1.4 3405,0.4 3403.9,1 3403.9,-0.8 "/>
<polygon fill="#E1F5E6" stroke="#0A4650" stroke-width="0.5" stroke-linecap="round" stroke-linejoin="round" stroke-miterlimit="10" points="
	3401.6,0.5 3401.6,-1.3 3402.7,-0.8 3402.7,1.1 "/>
<polygon fill="#E1F5E6" stroke="#0A4650" stroke-width="0.5" stroke-linecap="round" stroke-linejoin="round" stroke-miterlimit="10" points="
	3403.9,1 3402.7,1.1 3402.7,-0.8 3403.9,-0.8 "/>
<polygon fill="#FFFFFF" stroke="#0A4650" stroke-width="0.5" stroke-linecap="round" stroke-linejoin="round" stroke-miterlimit="10" points="
	3375.7,-1.7 3375.7,9.4 3375.4,1.9 3375.4,-9.3 "/>
<polygon fill="#E1F5E6" stroke="#0A4650" stroke-width="0.5" stroke-linecap="round" stroke-linejoin="round" stroke-miterlimit="10" points="
	3385,-21.2 3375.8,-20.9 3375.8,-22.8 3385,-23 "/>
<polygon fill="#E1F5E6" stroke="#0A4650" stroke-width="0.5" stroke-linecap="round" stroke-linejoin="round" stroke-miterlimit="10" points="
	3394.7,180.8 3332.1,176.4 3332.1,170.6 3394.7,175 "/>
<polygon fill="#FFFFFF" stroke="#0A4650" stroke-width="0.5" stroke-linecap="round" stroke-linejoin="round" stroke-miterlimit="10" points="
	3332.1,170.6 3332.8,161 3333.2,155.2 3326.1,154.7 3326.9,144 3396.5,148.9 3394.7,175 "/>
<polygon fill="#E1F5E6" stroke="#0A4650" stroke-width="0.5" stroke-linecap="round" stroke-linejoin="round" stroke-miterlimit="10" points="
	3333.2,155.2 3332.8,161 3326.1,160.6 3326.1,154.7 "/>
<polygon fill="#FFFFFF" stroke="#0A4650" stroke-width="0.5" stroke-linecap="round" stroke-linejoin="round" stroke-miterlimit="10" points="
	3396.5,154.7 3394.7,180.8 3394.7,175 3396.5,148.9 "/>
<polygon fill="#E1F5E6" stroke="#0A4650" stroke-width="0.5" stroke-linecap="round" stroke-linejoin="round" stroke-miterlimit="10" points="
	3457.5,-59.2 3421.3,-58.2 3421.3,-66.8 3439.4,-67.3 3439.4,-63.7 3457.5,-64.2 "/>
<polygon fill="#FFFFFF" stroke="#0A4650" stroke-width="0.5" stroke-linecap="round" stroke-linejoin="round" stroke-miterlimit="10" points="
	3421.3,-58.2 3420.8,-77.8 3420.8,-86.4 3421.3,-66.8 "/>
<polygon fill="#FFFFFF" stroke="#0A4650" stroke-width="0.5" stroke-linecap="round" stroke-linejoin="round" stroke-miterlimit="10" points="
	3457,-75.6 3457.5,-64.2 3439.4,-63.7 3439.4,-67.3 3439,-74.9 3445.4,-75.1 "/>
<polygon fill="#FFFFFF" stroke="#0A4650" stroke-width="0.5" stroke-linecap="round" stroke-linejoin="round" stroke-miterlimit="10" points="
	3439,-74.9 3439.4,-67.3 3421.3,-66.8 3420.8,-86.4 3442.3,-88.4 3442.5,-82 3445.2,-82.2 3445.4,-78.8 3438.9,-78.6 "/>
<polygon fill="#E1F5E6" stroke="#0A4650" stroke-width="0.5" stroke-linecap="round" stroke-linejoin="round" stroke-miterlimit="10" points="
	3439,-74.9 3438.9,-78.6 3445.4,-78.8 3445.4,-75.1 "/>
<polygon fill="#FFFFFF" stroke="#0A4650" stroke-width="0.5" stroke-linecap="round" stroke-linejoin="round" stroke-miterlimit="10" points="
	3423,-34.3 3425.6,-34.3 3425.7,-34.3 3443,-34.8 3443.3,-23.6 3423.4,-20.9 3423.4,-19.9 "/>
<polygon fill="#FFFFFF" stroke="#0A4650" stroke-width="0.5" stroke-linecap="round" stroke-linejoin="round" stroke-miterlimit="10" points="
	3443,-34.8 3425.7,-34.3 3425.2,-52.8 3459.1,-53.6 3459.5,-35.9 3459.7,-25.9 3443.3,-23.6 "/>
<polygon fill="#FFFFFF" stroke="#0A4650" stroke-width="0.5" stroke-linecap="round" stroke-linejoin="round" stroke-miterlimit="10" points="
	3459.7,-25.9 3459.5,-35.9 3496.8,-38.8 3497.5,-12.9 3460.1,-10 3460.1,-13 3459.8,-25.9 "/>
<polygon fill="#FFFFFF" stroke="#0A4650" stroke-width="0.5" stroke-linecap="round" stroke-linejoin="round" stroke-miterlimit="10" points="
	3425.7,-34.3 3425.6,-34.3 3425.2,-46.6 3425.2,-52.8 "/>
<polygon fill="#FFFFFF" stroke="#0A4650" stroke-width="0.5" stroke-linecap="round" stroke-linejoin="round" stroke-miterlimit="10" points="
	3459.7,-25.9 3459.8,-25.9 3460.1,-13 3423.6,-10.1 3423.4,-20.9 3443.3,-23.6 "/>
<polygon fill="#E1F5E6" stroke="#0A4650" stroke-width="0.5" stroke-linecap="round" stroke-linejoin="round" stroke-miterlimit="10" points="
	3497.5,-12.9 3497.5,-7.7 3423.6,-2 3423.6,-10.1 3460.1,-13 3460.1,-10 "/>
<polygon fill="#FFFFFF" stroke="#0A4650" stroke-width="0.5" stroke-linecap="round" stroke-linejoin="round" stroke-miterlimit="10" points="
	3423.4,-20.9 3423.6,-10.1 3423.6,-2 3423,-27.1 3423,-34.3 3423.4,-19.9 "/>
<polygon fill="#FFFFFF" stroke="#0A4650" stroke-width="0.5" stroke-linecap="round" stroke-linejoin="round" stroke-miterlimit="10" points="
	3410.4,203.6 3411.9,188.5 3412.1,188.5 3436.8,187 3436.9,187 3437.8,201.9 "/>
<polygon fill="#FFFFFF" stroke="#0A4650" stroke-width="0.5" stroke-linecap="round" stroke-linejoin="round" stroke-miterlimit="10" points="
	3436.9,187 3436.8,187 3436.6,182.7 3457.3,181.5 3465.2,181 3466.6,203.9 3437.8,205.6 3437.8,201.9 "/>
<polygon fill="#FFFFFF" stroke="#0A4650" stroke-width="0.5" stroke-linecap="round" stroke-linejoin="round" stroke-miterlimit="10" points="
	3436.8,187 3412.1,188.5 3413.5,173.2 3436.1,171.9 3437,171.9 3458.5,170.6 3458.7,173.5 3456.9,173.6 3457.3,179.7 3436.5,180.9 
	3436.6,182.7 "/>
<polygon fill="#E1F5E6" stroke="#0A4650" stroke-width="0.5" stroke-linecap="round" stroke-linejoin="round" stroke-miterlimit="10" points="
	3436.6,182.7 3436.5,180.9 3457.3,179.7 3457.3,179.7 3457.3,181.5 "/>
<polygon fill="#E1F5E6" stroke="#0A4650" stroke-width="0.5" stroke-linecap="round" stroke-linejoin="round" stroke-miterlimit="10" points="
	3457.3,179.7 3457.3,179.7 3456.9,173.6 3458.7,173.5 3458.7,179.6 "/>
<polygon fill="#FFFFFF" stroke="#0A4650" stroke-width="0.5" stroke-linecap="round" stroke-linejoin="round" stroke-miterlimit="10" points="
	3437,171.9 3436.1,171.9 3436.1,170.1 3438.4,154.5 3438.4,162.5 "/>
<polygon fill="#E1F5E6" stroke="#0A4650" stroke-width="0.5" stroke-linecap="round" stroke-linejoin="round" stroke-miterlimit="10" points="
	3410.4,203.6 3437.8,201.9 3437.8,205.6 3466.6,203.9 3466.6,208.2 3410.4,211.5 "/>
<polygon fill="#FFFFFF" stroke="#0A4650" stroke-width="0.5" stroke-linecap="round" stroke-linejoin="round" stroke-miterlimit="10" points="
	3444.3,155.1 3443.1,163.1 3443.1,155.2 3444.3,147.1 "/>
<polygon fill="#E1F5E6" stroke="#0A4650" stroke-width="0.5" stroke-linecap="round" stroke-linejoin="round" stroke-miterlimit="10" points="
	3443.1,163.1 3438.4,162.5 3438.4,154.5 3443.1,155.2 "/>
<polygon fill="#E1F5E6" stroke="#0A4650" stroke-width="0.5" stroke-linecap="round" stroke-linejoin="round" stroke-miterlimit="10" points="
	3436.1,171.9 3413.5,173.2 3413.5,171.4 3436.1,170.1 "/>
<polygon fill="#FFFFFF" stroke="#0A4650" stroke-width="0.5" stroke-linecap="round" stroke-linejoin="round" stroke-miterlimit="10" points="
	3436.1,170.1 3413.5,171.4 3416.2,143 3444.3,147.1 3443.1,155.2 3438.4,154.5 "/>
<rect x="3575.6" y="166.8" transform="matrix(0.5038 -0.8638 0.8638 0.5038 1626.8121 3175.9697)" fill="#FFFFFF" stroke="#0A4650" stroke-width="0.5" stroke-linecap="round" stroke-linejoin="round" stroke-miterlimit="10" width="4.4" height="10.4"/>
<polygon fill="#FFFFFF" stroke="#0A4650" stroke-width="0.5" stroke-linecap="round" stroke-linejoin="round" stroke-miterlimit="10" points="
	3581.2,176.5 3583.4,172.7 3583.4,175.2 3581.2,179 "/>
<polygon fill="#E1F5E6" stroke="#0A4650" stroke-width="0.5" stroke-linecap="round" stroke-linejoin="round" stroke-miterlimit="10" points="
	3581.2,176.5 3581.2,179 3572.2,173.8 3572.2,171.3 "/>
<polygon fill="#FFFFFF" stroke="#0A4650" stroke-width="0.5" stroke-linecap="round" stroke-linejoin="round" stroke-miterlimit="10" points="
	3612.1,155.6 3612.7,173.4 3598.7,173.9 3598.7,174.9 3598.4,165.5 3600,154 "/>
<polygon fill="#FFFFFF" stroke="#0A4650" stroke-width="0.5" stroke-linecap="round" stroke-linejoin="round" stroke-miterlimit="10" points="
	3598.7,174.9 3598.7,173.9 3599.1,184 3599.1,185 "/>
<polygon fill="#FFFFFF" stroke="#0A4650" stroke-width="0.5" stroke-linecap="round" stroke-linejoin="round" stroke-miterlimit="10" points="
	3600,154 3598.4,165.5 3598.4,164.1 3600,152.2 "/>
<polygon fill="#E1F5E6" stroke="#0A4650" stroke-width="0.5" stroke-linecap="round" stroke-linejoin="round" stroke-miterlimit="10" points="
	3613.3,194 3612.4,193.6 3612.4,187.5 3613.3,187.8 "/>
<polygon fill="#FFFFFF" stroke="#0A4650" stroke-width="0.5" stroke-linecap="round" stroke-linejoin="round" stroke-miterlimit="10" points="
	3613.3,187.8 3612.4,187.5 3612.4,186.1 3612.4,185.6 3612.3,185.2 3612,184.8 3611.7,184.5 3611.3,184.3 3610.9,184.2 
	3610.4,184.2 3610,184.3 3609.6,184.5 3609.3,184.9 3609.1,185.3 3609,185.7 3609,187.5 3609,188 3609.1,188.4 3609.4,188.8 
	3609.4,188.8 3609.1,189.7 3599.1,184 3598.7,173.9 3612.7,173.4 3612.8,173.4 "/>
<polygon fill="#FFFFFF" stroke="#0A4650" stroke-width="0.5" stroke-linecap="round" stroke-linejoin="round" stroke-miterlimit="10" points="
	3609.1,189.7 3609.4,188.8 3609.4,195 3609.1,195.9 "/>
<polygon fill="#E1F5E6" stroke="#0A4650" stroke-width="0.5" stroke-linecap="round" stroke-linejoin="round" stroke-miterlimit="10" points="
	3609.1,189.7 3609.1,195.9 3587.1,183.2 3587.1,178.1 3599.1,185 3599.1,184 "/>
<rect x="3572.7" y="148.5" transform="matrix(-0.9907 -0.1357 0.1357 -0.9907 7106.0576 793.4961)" fill="#FFFFFF" stroke="#0A4650" stroke-width="0.5" stroke-linecap="round" stroke-linejoin="round" stroke-miterlimit="10" width="14.8" height="12"/>
<polygon fill="#E1F5E6" stroke="#0A4650" stroke-width="0.5" stroke-linecap="round" stroke-linejoin="round" stroke-miterlimit="10" points="
	3586.6,167.6 3572,165.6 3572,159.5 3586.6,161.5 3586.6,162.5 "/>
<polygon fill="#FFFFFF" stroke="#0A4650" stroke-width="0.5" stroke-linecap="round" stroke-linejoin="round" stroke-miterlimit="10" points="
	3586.6,167.6 3586.6,162.5 3587.1,178.1 3587.1,183.2 "/>
<polygon fill="#FFFFFF" stroke="#0A4650" stroke-width="0.5" stroke-linecap="round" stroke-linejoin="round" stroke-miterlimit="10" points="
	3586.6,161.5 3588.2,149.5 3588.2,150.5 3586.6,162.5 "/>
<polygon fill="#FFFFFF" stroke="#0A4650" stroke-width="0.5" stroke-linecap="round" stroke-linejoin="round" stroke-miterlimit="10" points="
	3612.4,185.6 3612.4,186.1 3612.3,186.5 3612.1,186.9 3611.8,187.2 3611.4,187.5 3611,187.6 3610.5,187.6 3610.1,187.5 
	3609.7,187.3 3609.4,187 3609.1,186.6 3609,186.2 3609,185.7 3609.1,185.3 3609.3,184.9 3609.6,184.5 3610,184.3 3610.4,184.2 
	3610.9,184.2 3611.3,184.3 3611.7,184.5 3612,184.8 3612.3,185.2 "/>
<polygon fill="#FFFFFF" stroke="#0A4650" stroke-width="0.5" stroke-linecap="round" stroke-linejoin="round" stroke-miterlimit="10" points="
	3609,185.7 3609,186.2 3609,188 3609,187.5 "/>
<polygon fill="#E1F5E6" stroke="#0A4650" stroke-width="0.5" stroke-linecap="round" stroke-linejoin="round" stroke-miterlimit="10" points="
	3612.3,186.5 3612.1,186.9 3611.8,187.2 3611.8,187.2 3611.4,187.5 3611,187.6 3610.5,187.6 3610.1,187.5 3609.7,187.3 3609.4,187 
	3609.4,187 3609.1,186.6 3609,186.2 3609,188 3609.1,188.4 3609.4,188.8 3609.4,188.8 3609.4,188.8 3609.4,195 3609.7,195.3 
	3610.1,195.5 3610.5,195.6 3611,195.6 3611.4,195.4 3611.8,195.2 3611.8,195.2 3612.1,194.9 3612.3,194.5 3612.4,194 3612.4,193.6 
	3612.4,187.5 3612.4,186.1 "/>
<polygon fill="#FFFFFF" stroke="#0A4650" stroke-width="0.5" stroke-linecap="round" stroke-linejoin="round" stroke-miterlimit="10" points="
	3598.4,165.5 3598.7,174.9 3599.1,185 3587.1,178.1 3586.6,162.5 3588.2,150.5 3600,152.2 3598.4,164.1 "/>
<polygon fill="#E1F5E6" stroke="#0A4650" stroke-width="0.5" stroke-linecap="round" stroke-linejoin="round" stroke-miterlimit="10" points="
	3634.9,139.9 3634.9,149.8 3624.5,147.8 3624.5,137.8 "/>
<polygon fill="#FFFFFF" stroke="#0A4650" stroke-width="0.5" stroke-linecap="round" stroke-linejoin="round" stroke-miterlimit="10" points="
	3634.9,139.9 3624.5,137.8 3623.1,78.5 3633.5,78.2 3634,102.9 3634.3,115 3634.4,118.3 3634.4,120.8 3634.5,123.1 3634.8,136.3 
	3634.9,139.6 "/>
<rect x="3632.7" y="104.2" transform="matrix(2.317419e-002 0.9997 -0.9997 2.317419e-002 3663.251 -3531.4834)" fill="#FFFFFF" stroke="#0A4650" stroke-width="0.5" stroke-linecap="round" stroke-linejoin="round" stroke-miterlimit="10" width="12.1" height="9.2"/>
<polygon fill="#FFFFFF" stroke="#0A4650" stroke-width="0.5" stroke-linecap="round" stroke-linejoin="round" stroke-miterlimit="10" points="
	3624.5,137.8 3624.5,147.8 3623.1,88.5 3623.1,78.5 "/>
<polygon fill="#E1F5E6" stroke="#0A4650" stroke-width="0.5" stroke-linecap="round" stroke-linejoin="round" stroke-miterlimit="10" points="
	3643.5,114.8 3643.5,118.1 3634.4,118.3 3634.3,115 "/>
<rect x="3634.5" y="120.7" transform="matrix(-0.9997 2.305938e-002 -2.305938e-002 -0.9997 7275.7798 159.8399)" fill="#FFFFFF" stroke="#0A4650" stroke-width="0.5" stroke-linecap="round" stroke-linejoin="round" stroke-miterlimit="10" width="5" height="2.2"/>
<polygon fill="#FFFFFF" stroke="#0A4650" stroke-width="0.5" stroke-linecap="round" stroke-linejoin="round" stroke-miterlimit="10" points="
	3634.5,123.1 3639.5,122.9 3653.3,122.6 3654,149.8 3639.9,147 3639.6,136.2 3634.8,136.3 "/>
<polygon fill="#E1F5E6" stroke="#0A4650" stroke-width="0.5" stroke-linecap="round" stroke-linejoin="round" stroke-miterlimit="10" points="
	3634.8,136.3 3639.6,136.2 3639.6,137.7 3637.5,137.7 3637.5,139.6 3634.9,139.6 "/>
<polygon fill="#FFFFFF" stroke="#0A4650" stroke-width="0.5" stroke-linecap="round" stroke-linejoin="round" stroke-miterlimit="10" points="
	3637.5,139.6 3637.5,137.7 3637.6,139.7 3637.6,141.6 "/>
<polygon fill="#FFFFFF" stroke="#0A4650" stroke-width="0.5" stroke-linecap="round" stroke-linejoin="round" stroke-miterlimit="10" points="
	3639.6,136.2 3639.9,147 3639.9,150.3 3639.7,141.5 3639.7,139.7 3639.6,137.7 "/>
<polygon fill="#E1F5E6" stroke="#0A4650" stroke-width="0.5" stroke-linecap="round" stroke-linejoin="round" stroke-miterlimit="10" points="
	3654,153.1 3639.9,150.3 3639.9,147 3654,149.8 "/>
<rect x="3637.6" y="137.7" transform="matrix(-0.9997 2.277312e-002 -2.277312e-002 -0.9997 7279.4097 194.5287)" fill="#FFFFFF" stroke="#0A4650" stroke-width="0.5" stroke-linecap="round" stroke-linejoin="round" stroke-miterlimit="10" width="2.1" height="2"/>
<polygon fill="#E1F5E6" stroke="#0A4650" stroke-width="0.5" stroke-linecap="round" stroke-linejoin="round" stroke-miterlimit="10" points="
	3639.7,139.7 3639.7,141.5 3637.6,141.6 3637.6,139.7 "/>
<polygon fill="#FFFFFF" stroke="#0A4650" stroke-width="0.5" stroke-linecap="round" stroke-linejoin="round" stroke-miterlimit="10" points="
	3652,38.2 3639.6,38.1 3639.6,42 3631.3,42 3631.3,40.4 3627,40.3 3626.9,41.9 3621.6,41.9 3621.8,18.1 3652.2,18.3 "/>
<polygon fill="#E1F5E6" stroke="#0A4650" stroke-width="0.5" stroke-linecap="round" stroke-linejoin="round" stroke-miterlimit="10" points="
	3639.6,38.1 3652,38.2 3652,53.5 3639.6,53.4 "/>
<polygon fill="#FFFFFF" stroke="#0A4650" stroke-width="0.5" stroke-linecap="round" stroke-linejoin="round" stroke-miterlimit="10" points="
	3639.6,53.4 3639.6,57.3 3639.6,42 3639.6,38.1 "/>
<polygon fill="#FFFFFF" stroke="#0A4650" stroke-width="0.5" stroke-linecap="round" stroke-linejoin="round" stroke-miterlimit="10" points="
	3652,53.5 3652,38.2 3652.2,18.3 3652.2,33.7 "/>
<polygon fill="#E1F5E6" stroke="#0A4650" stroke-width="0.5" stroke-linecap="round" stroke-linejoin="round" stroke-miterlimit="10" points="
	3631.3,42 3639.6,42 3639.6,57.3 3631.3,57.3 3631.3,55.7 "/>
<polygon fill="#E1F5E6" stroke="#0A4650" stroke-width="0.5" stroke-linecap="round" stroke-linejoin="round" stroke-miterlimit="10" points="
	3631.3,42 3631.3,55.7 3627,55.6 3627,40.3 3631.3,40.4 "/>
<polygon fill="#FFFFFF" stroke="#0A4650" stroke-width="0.5" stroke-linecap="round" stroke-linejoin="round" stroke-miterlimit="10" points="
	3627,40.3 3627,55.6 3626.9,57.2 3626.9,41.9 "/>
<polygon fill="#E1F5E6" stroke="#0A4650" stroke-width="0.5" stroke-linecap="round" stroke-linejoin="round" stroke-miterlimit="10" points="
	3621.6,41.9 3626.9,41.9 3626.9,57.2 3621.6,57.2 "/>
<polygon fill="#FFFFFF" stroke="#0A4650" stroke-width="0.5" stroke-linecap="round" stroke-linejoin="round" stroke-miterlimit="10" points="
	3511.9,33.3 3511.9,23.5 3512,42.7 3512,52.5 "/>
<polygon fill="#FFFFFF" stroke="#0A4650" stroke-width="0.5" stroke-linecap="round" stroke-linejoin="round" stroke-miterlimit="10" points="
	3557.4,23.2 3557.4,30.3 3557.5,42.4 3512,42.7 3511.9,23.5 "/>
<polygon fill="#FFFFFF" stroke="#0A4650" stroke-width="0.5" stroke-linecap="round" stroke-linejoin="round" stroke-miterlimit="10" points="
	3590.4,30.1 3590.4,44.7 3590.5,52.6 3528.7,53 3528.6,47.9 3557.5,47.7 3557.5,42.4 3557.4,30.3 "/>
<polygon fill="#E1F5E6" stroke="#0A4650" stroke-width="0.5" stroke-linecap="round" stroke-linejoin="round" stroke-miterlimit="10" points="
	3512,42.7 3557.5,42.4 3557.5,47.7 3528.6,47.9 3528.6,52.4 3512,52.5 "/>
<polygon fill="#E1F5E6" stroke="#0A4650" stroke-width="0.5" stroke-linecap="round" stroke-linejoin="round" stroke-miterlimit="10" points="
	3528.7,53 3590.5,52.6 3590.5,54.4 3591.2,54.4 3591.2,57.1 3528.7,57.5 "/>
<polygon fill="#FFFFFF" stroke="#0A4650" stroke-width="0.5" stroke-linecap="round" stroke-linejoin="round" stroke-miterlimit="10" points="
	3528.6,52.4 3528.6,47.9 3528.7,53 3528.7,57.5 "/>
<polygon fill="#FFFFFF" stroke="#0A4650" stroke-width="0.5" stroke-linecap="round" stroke-linejoin="round" stroke-miterlimit="10" points="
	3590.4,44.7 3596.5,44.7 3596.5,48.5 3598,48.5 3598.1,60.9 3591.3,61 3591.2,54.4 3590.5,54.4 3590.5,52.6 "/>
<polygon fill="#FFFFFF" stroke="#0A4650" stroke-width="0.5" stroke-linecap="round" stroke-linejoin="round" stroke-miterlimit="10" points="
	3591.2,57.1 3591.2,54.4 3591.3,61 3591.3,63.6 "/>
<polygon fill="#E1F5E6" stroke="#0A4650" stroke-width="0.5" stroke-linecap="round" stroke-linejoin="round" stroke-miterlimit="10" points="
	3591.3,61 3598.1,60.9 3598.1,63.6 3591.3,63.6 "/>
<polygon fill="#FFFFFF" stroke="#0A4650" stroke-width="0.5" stroke-linecap="round" stroke-linejoin="round" stroke-miterlimit="10" points="
	3561,-138.1 3570,-138.6 3570.2,-138.6 3571.6,-115.5 3562.4,-114.8 "/>
<polygon fill="#E1F5E6" stroke="#0A4650" stroke-width="0.5" stroke-linecap="round" stroke-linejoin="round" stroke-miterlimit="10" points="
	3605.9,-120.2 3605.9,-115.8 3562.4,-112.3 3562.4,-114.8 3571.6,-115.5 3571.6,-117.3 "/>
<polygon fill="#FFFFFF" stroke="#0A4650" stroke-width="0.5" stroke-linecap="round" stroke-linejoin="round" stroke-miterlimit="10" points="
	3570,-139.3 3570,-143.6 3571.6,-117.3 3571.6,-115.5 3570.2,-138.6 3570,-138.6 "/>
<polygon fill="#FFFFFF" stroke="#0A4650" stroke-width="0.5" stroke-linecap="round" stroke-linejoin="round" stroke-miterlimit="10" points="
	3562.4,-112.3 3561,-135.6 3561,-138.1 3562.4,-114.8 "/>
<polygon fill="#FFFFFF" stroke="#0A4650" stroke-width="0.5" stroke-linecap="round" stroke-linejoin="round" stroke-miterlimit="10" points="
	3570,-143.6 3605.4,-145.6 3605.9,-120.2 3571.6,-117.3 "/>
<polygon fill="#FFFFFF" stroke="#0A4650" stroke-width="0.5" stroke-linecap="round" stroke-linejoin="round" stroke-miterlimit="10" points="
	3596.6,-90.4 3596.9,-65.5 3584.4,-65.3 3584.3,-80.2 3589.2,-80.3 3589.2,-80.3 3589.1,-90.3 "/>
<polygon fill="#E1F5E6" stroke="#0A4650" stroke-width="0.5" stroke-linecap="round" stroke-linejoin="round" stroke-miterlimit="10" points="
	3596.9,-65.5 3596.9,-63 3584.4,-62.8 3584.4,-65.3 "/>
<polygon fill="#FFFFFF" stroke="#0A4650" stroke-width="0.5" stroke-linecap="round" stroke-linejoin="round" stroke-miterlimit="10" points="
	3589.1,-90.3 3589.2,-80.3 3589.2,-80.3 3589.1,-87.8 "/>
<polygon fill="#FFFFFF" stroke="#0A4650" stroke-width="0.5" stroke-linecap="round" stroke-linejoin="round" stroke-miterlimit="10" points="
	3584.3,-80.2 3584.4,-65.3 3584.4,-62.8 3584.3,-77.7 "/>
<polygon fill="#E1F5E6" stroke="#0A4650" stroke-width="0.5" stroke-linecap="round" stroke-linejoin="round" stroke-miterlimit="10" points="
	3606,-94.3 3599.2,-94.2 3599.2,-96.7 3606,-96.8 "/>
<polygon fill="#FFFFFF" stroke="#0A4650" stroke-width="0.5" stroke-linecap="round" stroke-linejoin="round" stroke-miterlimit="10" points="
	3599.2,-94.2 3599.1,-95.8 3599.1,-98.3 3599.2,-96.7 "/>
<polygon fill="#E1F5E6" stroke="#0A4650" stroke-width="0.5" stroke-linecap="round" stroke-linejoin="round" stroke-miterlimit="10" points="
	3599.1,-95.8 3589.1,-95.7 3589.1,-98.1 3599.1,-98.3 "/>
<polygon fill="#FFFFFF" stroke="#0A4650" stroke-width="0.5" stroke-linecap="round" stroke-linejoin="round" stroke-miterlimit="10" points="
	3589.1,-95.7 3589,-105.2 3589,-107.7 3589.1,-98.1 "/>
<polygon fill="#FFFFFF" stroke="#0A4650" stroke-width="0.5" stroke-linecap="round" stroke-linejoin="round" stroke-miterlimit="10" points="
	3599.1,-98.3 3589.1,-98.1 3589,-107.7 3598.9,-107.8 3598.9,-106.8 3605.9,-106.9 3606,-96.8 3599.2,-96.7 "/>
<polygon fill="#FFFFFF" stroke="#0A4650" stroke-width="0.5" stroke-linecap="round" stroke-linejoin="round" stroke-miterlimit="10" points="
	3546.8,-155 3546.3,-184.4 3546.3,-189.4 3546.8,-160 "/>
<polygon fill="#FFFFFF" stroke="#0A4650" stroke-width="0.5" stroke-linecap="round" stroke-linejoin="round" stroke-miterlimit="10" points="
	3546.3,-189.4 3553,-190 3553.1,-190 3603.1,-194.5 3604.3,-167.9 3604.3,-167.6 3604.3,-167.2 3604.3,-166.9 3604.2,-166.6 
	3604.1,-166.2 3604,-165.9 3603.9,-165.6 3603.8,-165.3 3603.6,-165 3603.4,-164.7 3603.2,-164.4 3603,-164.2 3602.8,-163.9 
	3602.5,-163.7 3602.2,-163.5 3602,-163.3 3601.7,-163.1 3601.4,-163 3601,-162.8 3600.7,-162.7 3600.4,-162.6 3600.1,-162.6 
	3599.7,-162.5 3599.4,-162.5 3546.8,-160 "/>
<polygon fill="#FFFFFF" stroke="#0A4650" stroke-width="0.5" stroke-linecap="round" stroke-linejoin="round" stroke-miterlimit="10" points="
	3553,-190 3552,-232.5 3552,-237.5 3552.9,-201.1 3552.9,-204.8 3553.1,-193.7 3553.1,-190 "/>
<polygon fill="#E1F5E6" stroke="#0A4650" stroke-width="0.5" stroke-linecap="round" stroke-linejoin="round" stroke-miterlimit="10" points="
	3603.1,-198.1 3603.1,-194.5 3553.1,-190 3553.1,-193.7 "/>
<polygon fill="#FFFFFF" stroke="#0A4650" stroke-width="0.5" stroke-linecap="round" stroke-linejoin="round" stroke-miterlimit="10" points="
	3603.1,-198.1 3553.1,-193.7 3552.9,-204.8 3595.6,-204.8 3602.8,-204.8 "/>
<polygon fill="#FFFFFF" stroke="#0A4650" stroke-width="0.5" stroke-linecap="round" stroke-linejoin="round" stroke-miterlimit="10" points="
	3595.5,-237.6 3595.6,-204.8 3552.9,-204.8 3552.9,-201.1 3552,-237.5 "/>
<polygon fill="#E1F5E6" stroke="#0A4650" stroke-width="0.5" stroke-linecap="round" stroke-linejoin="round" stroke-miterlimit="10" points="
	3604.3,-167.2 3604.3,-166.9 3604.2,-166.6 3604.1,-166.2 3604,-165.9 3603.9,-165.6 3603.8,-165.3 3603.6,-165 3603.4,-164.7 
	3603.2,-164.4 3603,-164.2 3602.8,-163.9 3602.5,-163.7 3602.2,-163.5 3602,-163.3 3601.7,-163.1 3601.4,-163 3601,-162.8 
	3600.7,-162.7 3600.4,-162.6 3600.1,-162.6 3599.7,-162.5 3599.4,-162.5 3546.8,-160 3546.8,-155 3599.4,-157.5 3599.7,-157.5 
	3600.1,-157.6 3600.4,-157.7 3600.7,-157.7 3601,-157.9 3601.4,-158 3601.7,-158.1 3602,-158.3 3602.2,-158.5 3602.5,-158.7 
	3602.8,-159 3603,-159.2 3603.2,-159.5 3603.4,-159.7 3603.6,-160 3603.8,-160.3 3603.9,-160.6 3604,-160.9 3604.1,-161.3 
	3604.2,-161.6 3604.3,-161.9 3604.3,-162.3 3604.3,-162.6 3604.3,-167.6 "/>
<g>
	<g>
		<path fill="#0A4650" d="M3416.3,143l28.1,4.1v8l-1.2,8.1l-4.7-0.7l-1.4,9.4l21.5-1.3l0.2,2.9v6.2l-1.4,0.1v1.8l7.9-0.5l1.4,22.9
			v4.3l-56.1,3.3v-8l1.4-15.1l0.2,0l1.5-15.2v-1.8L3416.3,143 M3416.3,142c-0.2,0-0.4,0.1-0.6,0.2c-0.2,0.2-0.4,0.4-0.4,0.7
			l-2.7,28.4c0,0,0,0.1,0,0.1v1.8l-1.4,14.6c-0.1,0.1-0.2,0.3-0.2,0.5l-1.4,15.1c0,0,0,0.1,0,0.1v8c0,0.3,0.1,0.5,0.3,0.7
			c0.2,0.2,0.4,0.3,0.7,0.3c0,0,0,0,0.1,0l56.1-3.3c0.5,0,0.9-0.5,0.9-1v-4.3c0,0,0,0,0-0.1l-1.4-22.9c0-0.5-0.5-0.9-1-0.9
			c0,0,0,0-0.1,0l-5.8,0.3c0.2-0.2,0.4-0.5,0.4-0.8v-6.2c0,0,0,0,0-0.1l-0.2-2.9c0-0.5-0.5-0.9-1-0.9c0,0,0,0-0.1,0l-20.3,1.2l1-7.2
			l3.7,0.6c0,0,0.1,0,0.1,0c0.2,0,0.4-0.1,0.6-0.2c0.2-0.2,0.4-0.4,0.4-0.7l1.2-8.1c0,0,0-0.1,0-0.1v-8c0-0.5-0.4-0.9-0.9-1
			l-28.1-4.1C3416.3,142,3416.3,142,3416.3,142L3416.3,142z"/>
	</g>
	<g>
		<path fill="#0A4650" d="M3466.8,71.5l19,0.9v6.8l-0.9,19L3459,97v-6.2l0.9-19l6.9,0.3L3466.8,71.5 M3466.8,70.5
			c-0.4,0-0.8,0.3-0.9,0.6l-5.9-0.3c0,0,0,0,0,0c-0.2,0-0.5,0.1-0.7,0.3c-0.2,0.2-0.3,0.4-0.3,0.7l-0.9,19l0,6.2c0,0.5,0.4,1,1,1
			l25.9,1.2c0,0,0,0,0,0c0.5,0,1-0.4,1-1l0.9-19l0-6.9c0-0.5-0.4-1-1-1L3466.8,70.5C3466.9,70.5,3466.9,70.5,3466.8,70.5
			L3466.8,70.5z"/>
	</g>
	<g>
		<path fill="#0A4650" d="M3509-8.1l1.9,22.2v4.5l-23.7-0.2l-1.7-20v-4.5L3509-8.1 M3509-9.1C3509-9.1,3508.9-9.1,3509-9.1l-23.6,2
			c-0.5,0-0.9,0.5-0.9,1v4.5c0,0,0,0.1,0,0.1l1.7,20c0,0.5,0.5,0.9,1,0.9l23.7,0.2c0,0,0,0,0,0c0.3,0,0.5-0.1,0.7-0.3
			c0.2-0.2,0.3-0.4,0.3-0.7v-4.5c0,0,0-0.1,0-0.1L3510-8.2c0-0.3-0.1-0.5-0.4-0.7C3509.5-9,3509.2-9.1,3509-9.1L3509-9.1z"/>
	</g>
	<g>
		<path fill="#0A4650" d="M3459.1-53.6l0.4,17.7l37.3-2.9l0.6,25.9v5.2L3423.6-2l-0.6-25.1v-7.1l2.6-0.1l-0.3-12.3v-6.1L3459.1-53.6
			 M3459.1-54.6C3459-54.6,3459-54.6,3459.1-54.6l-33.8,0.9c-0.5,0-1,0.5-1,1v6.1l0.3,11.3l-1.6,0c-0.5,0-1,0.5-1,1v7.1l0.6,25.1
			c0,0.3,0.1,0.5,0.3,0.7c0.2,0.2,0.4,0.3,0.7,0.3c0,0,0.1,0,0.1,0l73.8-5.7c0.5,0,0.9-0.5,0.9-1v-5.2l-0.7-25.9
			c0-0.3-0.1-0.5-0.3-0.7c-0.2-0.2-0.4-0.3-0.7-0.3c0,0-0.1,0-0.1,0l-36.3,2.8l-0.4-16.6C3460-54.2,3459.6-54.6,3459.1-54.6
			L3459.1-54.6z"/>
	</g>
	<g>
		<path fill="#0A4650" d="M3649.9-12.4l0,1.2l3-0.1l0.5,15.2v2.5l-9.9,0.3l-0.1-3.3l-1.2,0l-0.4-13v-2.5L3649.9-12.4 M3649.9-13.4
			C3649.9-13.4,3649.9-13.4,3649.9-13.4l-8.2,0.3c-0.5,0-1,0.5-1,1v2.5l0.5,13.1c0,0.5,0.5,1,1,1c0,0,0,0,0,0l0.2,0l0.1,2.3
			c0,0.3,0.1,0.5,0.3,0.7c0.2,0.2,0.4,0.3,0.7,0.3c0,0,0,0,0,0l9.9-0.3c0.5,0,1-0.5,1-1V3.9l-0.5-15.2c0-0.5-0.5-1-1-1c0,0,0,0,0,0
			l-2,0.1l0-0.2C3650.9-12.9,3650.4-13.4,3649.9-13.4L3649.9-13.4z"/>
	</g>
	<g>
		<path fill="#0A4650" d="M3660,176.7l0.4,16.3v3.3l-13.4,0.3l-0.4-16.3V177L3660,176.7 M3660,175.7
			C3660,175.7,3660,175.7,3660,175.7l-13.4,0.3c-0.5,0-1,0.5-1,1v3.3l0.4,16.3c0,0.3,0.1,0.5,0.3,0.7c0.2,0.2,0.4,0.3,0.7,0.3
			c0,0,0,0,0,0l13.4-0.3c0.5,0,1-0.5,1-1v-3.3l-0.4-16.3c0-0.3-0.1-0.5-0.3-0.7C3660.5,175.8,3660.3,175.7,3660,175.7L3660,175.7z"
			/>
	</g>
	<g>
		<path fill="#0A4650" d="M3574.4,167.5l9,5.3v2.5l-2.2,3.8l-9-5.3v-2.5L3574.4,167.5 M3574.4,166.5c-0.1,0-0.2,0-0.3,0
			c-0.3,0.1-0.5,0.2-0.6,0.5l-2.2,3.8c-0.1,0.2-0.1,0.3-0.1,0.5v2.5c0,0.4,0.2,0.7,0.5,0.9l9,5.3c0.2,0.1,0.3,0.1,0.5,0.1
			c0.1,0,0.2,0,0.3,0c0.3-0.1,0.5-0.2,0.6-0.5l2.2-3.8c0.1-0.2,0.1-0.3,0.1-0.5v-2.5c0-0.4-0.2-0.7-0.5-0.9l-9-5.3
			C3574.8,166.5,3574.6,166.5,3574.4,166.5L3574.4,166.5z"/>
	</g>
	<g>
		<path fill="#0A4650" d="M3605.4-145.6l0.5,25.4v4.3l-43.5,3.6l-1.4-23.3v-2.5l9-0.5l0-0.7v-4.3L3605.4-145.6 M3605.4-146.6
			C3605.4-146.6,3605.4-146.6,3605.4-146.6l-35.5,2c-0.5,0-0.9,0.5-0.9,1v4l-8,0.5c-0.5,0-0.9,0.5-0.9,1v2.5c0,0,0,0,0,0.1l1.4,23.3
			c0,0.3,0.1,0.5,0.3,0.7c0.2,0.2,0.4,0.2,0.7,0.2c0,0,0.1,0,0.1,0l43.5-3.6c0.5,0,0.9-0.5,0.9-1v-4.3l-0.5-25.5
			c0-0.3-0.1-0.5-0.3-0.7C3605.9-146.5,3605.7-146.6,3605.4-146.6L3605.4-146.6z"/>
	</g>
	<g>
		<path fill="#0A4650" d="M3404.4,31.9v8.7l-1,23.1l-0.6,15.5l-0.4,10.7l-0.5,11.5l-22.3,0.5v-8l0.2-12.9v-0.7l0.1-10.7v-0.7
			l0.2-15.6h0l0.3-20.4L3404.4,31.9 M3404.4,30.9C3404.4,30.9,3404.4,30.9,3404.4,30.9l-24,1.1c-0.5,0-0.9,0.5-1,1l-0.3,20.2
			c0,0,0,0.1,0,0.1l-0.2,15.6v0.7l-0.1,10.6v0.7l-0.2,12.9l0,8c0,0.3,0.1,0.5,0.3,0.7c0.2,0.2,0.4,0.3,0.7,0.3c0,0,0,0,0,0l22.3-0.5
			c0.5,0,1-0.4,1-1l0.5-11.5l0.4-10.7l0.6-15.5l1-23.1l0-8.7c0-0.3-0.1-0.5-0.3-0.7C3404.9,31,3404.7,30.9,3404.4,30.9L3404.4,30.9z
			"/>
	</g>
	<g>
		<path fill="#0A4650" d="M3423.7,62.4l20.9,1.4v13.5l-1.2,18.7v6.2l-0.9,12.2l-17-5.2l-0.2-0.1l-0.2-0.1l-0.2-0.1l-0.2-0.1
			l-0.2-0.1l-0.2-0.1l-0.2-0.1l-0.2-0.1l-0.2-0.2l-0.1-0.1l-0.1-0.2l-0.1-0.2l-0.1-0.2l-0.1-0.2l-0.1-0.2l-0.1-0.2l-0.1-0.2
			l-0.1-0.2l-0.1-0.2l-0.1-0.2l0-0.2l0-0.2l0-0.2V92.1v-0.2L3423.7,62.4 M3423.7,61.4c-0.2,0-0.5,0.1-0.7,0.3
			c-0.2,0.2-0.3,0.4-0.3,0.7l-1,29.5l0,0.2v13.5c0,0,0,0.1,0,0.1l0,0.2l0,0.2l0,0.2c0,0,0,0.1,0,0.1l0.1,0.2l0.1,0.2c0,0,0,0,0,0.1
			l0.1,0.2l0.1,0.2c0,0,0,0,0,0.1l0.1,0.2c0,0,0,0,0,0.1l0.1,0.2l0.1,0.2c0,0,0,0,0,0.1l0.1,0.2c0,0,0,0,0,0.1l0.1,0.2
			c0,0,0,0,0,0.1l0.1,0.2l0.2,0.2l0.2,0.2c0,0,0,0,0,0l0.2,0.1c0,0,0,0,0.1,0l0.2,0.1l0.2,0.1c0,0,0,0,0.1,0l0.2,0.1c0,0,0,0,0.1,0
			l0.2,0.1c0,0,0,0,0.1,0l0.2,0.1l0.2,0.1c0,0,0.1,0,0.1,0l0.2,0.1l17.1,5.2c0.1,0,0.2,0,0.3,0c0.2,0,0.4-0.1,0.6-0.2
			c0.3-0.2,0.4-0.4,0.4-0.8l0.9-12.2c0,0,0-0.1,0-0.1V96l1.2-18.7c0,0,0,0,0-0.1V63.8c0-0.5-0.4-1-0.9-1L3423.7,61.4
			C3423.7,61.4,3423.7,61.4,3423.7,61.4L3423.7,61.4z"/>
	</g>
	<g>
		<path fill="#0A4650" d="M3425.2,24.4l22.9,0v8l0,27.3l-23.5,0v-8L3425.2,24.4 M3425.2,23.4c-0.5,0-1,0.4-1,1l-0.6,27.3l0,8
			c0,0.6,0.4,1,1,1l23.5,0h0c0.6,0,1-0.4,1-1l0-27.3v-8c0-0.6-0.4-1-1-1L3425.2,23.4L3425.2,23.4L3425.2,23.4z"/>
	</g>
	<g>
		<path fill="#0A4650" d="M3598.9-107.8l0,1l7-0.1l0.1,10.1v2.5l-6.8,0.1l0-1.6l-10,0.1l-0.1-9.5v-2.5L3598.9-107.8 M3598.9-108.8
			C3598.9-108.8,3598.9-108.8,3598.9-108.8l-9.9,0.1c-0.5,0-1,0.5-1,1v2.5l0.1,9.5c0,0.5,0.5,1,1,1c0,0,0,0,0,0l9-0.1l0,0.6
			c0,0.5,0.5,1,1,1c0,0,0,0,0,0l6.8-0.1c0.5,0,1-0.5,1-1v-2.5l-0.1-10.1c0-0.3-0.1-0.5-0.3-0.7c-0.2-0.2-0.4-0.3-0.7-0.3
			c0,0,0,0,0,0l-6,0.1c0-0.3-0.1-0.5-0.3-0.7C3599.4-108.7,3599.2-108.8,3598.9-108.8L3598.9-108.8z"/>
	</g>
	<g>
		<path fill="#0A4650" d="M3633.5,78.3l0.6,24.6l9.2-0.2l0.3,12.1v3.3l-9.1,0.2l0.1,2.5l5-0.1l0.1,2.3l13.9-0.3l0.6,27.2v3.3
			l-14.1-2.8l-0.2-8.8l-2.1,0.1v-0.1l-0.1-2l-2.7,0.1l0,0.3v10l-10.4-2.1l-1.4-59.3v-10L3633.5,78.3 M3633.5,77.3
			C3633.5,77.3,3633.4,77.3,3633.5,77.3l-10.4,0.2c-0.5,0-1,0.5-1,1v10l1.4,59.3c0,0.5,0.3,0.9,0.8,1l10.4,2.1c0.1,0,0.1,0,0.2,0
			c0.2,0,0.5-0.1,0.6-0.2c0.2-0.2,0.4-0.5,0.4-0.8v-9.3l0.7,0l0,1l0,0c0,0.3,0.1,0.5,0.3,0.7c0.2,0.2,0.4,0.3,0.7,0.3c0,0,0,0,0,0
			l1.1,0l0.2,7.8c0,0.5,0.3,0.9,0.8,1l14.1,2.8c0.1,0,0.1,0,0.2,0c0.2,0,0.5-0.1,0.6-0.2c0.2-0.2,0.4-0.5,0.4-0.8v-3.3l-0.6-27.2
			c0-0.3-0.1-0.5-0.3-0.7c-0.2-0.2-0.4-0.3-0.7-0.3c0,0,0,0,0,0l-12.9,0.3l0-1.2c0-0.5-0.5-1-1-1c0,0,0,0,0,0l-4,0.1l0-0.5l8.1-0.2
			c0.5,0,1-0.5,1-1v-3.3l-0.3-12.1c0-0.5-0.5-1-1-1c0,0,0,0,0,0l-8.2,0.2l-0.5-23.6c0-0.3-0.1-0.5-0.3-0.7
			C3634,77.3,3633.7,77.3,3633.5,77.3L3633.5,77.3z"/>
	</g>
	<g>
		<path fill="#0A4650" d="M3573.6,147.5l14.6,2v1l11.8,1.6v1.8l12.1,1.7l0.6,17.8h0.1l0.5,14.4v6.2l-0.9-0.3v0.4l-0.1,0.4l-0.2,0.4
			l-0.3,0.3l-0.4,0.2l-0.4,0.1l-0.4,0l-0.4-0.1l-0.4-0.2l-0.3-0.3l-0.3,0.9l-22-12.6l-0.5-15.6l-14.6-2v-6.2L3573.6,147.5
			 M3573.6,146.5c-0.5,0-0.9,0.4-1,0.9l-1.6,11.9c0,0,0,0.1,0,0.1v6.2c0,0.5,0.4,0.9,0.9,1l13.8,1.9l0.5,14.8c0,0.3,0.2,0.7,0.5,0.8
			l22,12.6c0.2,0.1,0.3,0.1,0.5,0.1c0.1,0,0.2,0,0.3-0.1c0.2-0.1,0.3-0.2,0.5-0.3c0,0,0,0,0,0l0.4,0.1c0.1,0,0.1,0,0.2,0
			c0,0,0,0,0,0l0.4,0c0.1,0,0.2,0,0.3,0l0.4-0.1c0.1,0,0.2-0.1,0.2-0.1l0.4-0.2c0.1,0,0.1-0.1,0.2-0.1l0.3-0.3
			c0.1-0.1,0.1-0.1,0.2-0.2l0.2-0.4c0,0,0.1,0,0.1,0c0.2,0,0.4-0.1,0.6-0.2c0.3-0.2,0.4-0.5,0.4-0.8v-6.2l-0.5-14.4
			c0-0.2,0-0.3-0.1-0.4l-0.6-17.3c0-0.5-0.4-0.9-0.9-1l-11.2-1.5v-1c0-0.5-0.4-0.9-0.9-1l-11-1.5v-0.1c0-0.5-0.4-0.9-0.9-1l-14.6-2
			C3573.7,146.5,3573.6,146.5,3573.6,146.5L3573.6,146.5z"/>
	</g>
	<g>
		<path fill="#0A4650" d="M3621.8,18.1l30.4,0.2v15.3l-0.1,19.9l-12.4-0.1l0,3.9l-8.4-0.1v-1.6l-4.3,0l0,1.6l-5.3,0V41.9
			L3621.8,18.1 M3621.8,17.1c-0.5,0-1,0.4-1,1l-0.2,23.8v15.3c0,0.5,0.4,1,1,1l5.3,0c0,0,0,0,0,0c0.3,0,0.5-0.1,0.7-0.3
			c0.2-0.2,0.3-0.4,0.3-0.7l0-0.6l2.3,0v0.6c0,0.5,0.4,1,1,1l8.4,0.1c0,0,0,0,0,0c0.5,0,1-0.4,1-1l0-2.9l11.4,0.1c0,0,0,0,0,0
			c0.5,0,1-0.4,1-1l0.1-19.9V18.3c0-0.5-0.4-1-1-1L3621.8,17.1C3621.8,17.1,3621.8,17.1,3621.8,17.1L3621.8,17.1z"/>
	</g>
	<g>
		<path fill="#0A4650" d="M3644.1,181.2l0.4,14.8v3.3l-13.9,0.2l-0.4-14.5v-3.3L3644.1,181.2 M3644.1,180.2
			C3644.1,180.2,3644.1,180.2,3644.1,180.2l-13.9,0.4c-0.5,0-1,0.5-1,1v3.3l0.4,14.5c0,0.5,0.5,1,1,1c0,0,0,0,0,0l13.9-0.1
			c0.5,0,1-0.5,1-1V196l-0.4-14.8c0-0.3-0.1-0.5-0.3-0.7C3644.6,180.3,3644.3,180.2,3644.1,180.2L3644.1,180.2z"/>
	</g>
	<g>
		<path fill="#0A4650" d="M3485.6,95.7l2.8,0.5v2l19.4,3.7v0.7l0.4-2l16.6,3.2v6.2l-4,20.9l-3.4,2.3l-13.7-2.6l-0.3,1.4l-22.6-4.3
			v-6.8L3485.6,95.7 M3485.6,94.7c-0.5,0-0.9,0.3-1,0.8l-4.8,25.2c0,0.1,0,0.1,0,0.2v6.8c0,0.5,0.3,0.9,0.8,1l22.6,4.3
			c0.1,0,0.1,0,0.2,0c0.2,0,0.4-0.1,0.6-0.2c0.2-0.1,0.4-0.4,0.4-0.6l0.1-0.4l12.7,2.4c0.1,0,0.1,0,0.2,0c0.2,0,0.4-0.1,0.6-0.2
			l3.4-2.3c0.2-0.1,0.4-0.4,0.4-0.6l4-20.9c0-0.1,0-0.1,0-0.2v-6.2c0-0.5-0.3-0.9-0.8-1l-16.6-3.2c-0.1,0-0.1,0-0.2,0
			c-0.5,0-0.9,0.3-1,0.8l-0.1,0.4l-17.7-3.4v-1.2c0-0.5-0.3-0.9-0.8-1l-2.8-0.5C3485.7,94.7,3485.6,94.7,3485.6,94.7L3485.6,94.7z"
			/>
	</g>
	<g>
		<path fill="#0A4650" d="M3526.8,151.3l3.7,2.9v7.5v1.7h2.7l0.2-0.3l0.3-0.2l0.3-0.1l0.4-0.1l0.4,0.1l0.4,0.1l0.3,0.2l0.2,0.3h2.1
			v3.2h1.2l0.2-0.3l0.3-0.2l0.3-0.1l0.4,0l0.4,0l0.4,0.1l0.3,0.2l0.2,0.3h2.1v1.6l1.1-0.1l1.5,0.2l1.4,0.6l1.2,0.9l0.9,1.2l0.6,1.4
			l0.2,1.5v12.6l-0.2,1.5l-0.6,1.4l-0.9,1.2l-1.2,0.9l-1.4,0.6l-1.5,0.2l-1.1-0.2v0.6v6.8h-5.8v3.2h-6.6v0.9h-8.6v-0.9h-6.6v-3.2
			h-5.8v-2.9h-11.8v-6.4h-1.7v-8.5v-5.4v-2.1h1.7v-4.7l3.2-1.7l3.2,1.7h5.5v-2.9h2.1l0.2-0.3l0.3-0.2l0.3-0.1l0.4,0l0.4,0l0.4,0.1
			l0.3,0.2l0.2,0.3h1.2v-3.2h2.1l0.2-0.3l0.3-0.2l0.3-0.1l0.4-0.1l0.4,0.1l0.4,0.1l0.3,0.2l0.2,0.3h2.6v-1.7v-7.5L3526.8,151.3
			 M3526.8,150.3c-0.2,0-0.4,0.1-0.6,0.2l-3.8,2.9c-0.2,0.2-0.4,0.5-0.4,0.8v7.5v0.7h-1.2c0,0-0.1-0.1-0.1-0.1l-0.3-0.2
			c-0.1-0.1-0.2-0.1-0.2-0.1l-0.3-0.1c-0.1,0-0.2-0.1-0.2-0.1l-0.4-0.1c0,0-0.1,0-0.1,0c0,0-0.1,0-0.1,0l-0.4,0.1
			c-0.1,0-0.2,0-0.2,0.1l-0.4,0.1c-0.1,0-0.2,0.1-0.2,0.1l-0.3,0.2c0,0-0.1,0.1-0.1,0.1h-1.6c-0.6,0-1,0.4-1,1v1.9l-0.1-0.1
			c-0.1-0.1-0.1-0.1-0.2-0.1l-0.4-0.1c-0.1,0-0.2-0.1-0.3-0.1l-0.4,0c0,0-0.1,0-0.1,0s-0.1,0-0.1,0l-0.4,0c-0.1,0-0.2,0-0.3,0.1
			l-0.4,0.1c-0.1,0-0.1,0.1-0.2,0.1l-0.3,0.2c0,0-0.1,0-0.1,0.1h-1.6c-0.6,0-1,0.4-1,1v1.9h-4.2l-2.9-1.6c-0.1-0.1-0.3-0.1-0.5-0.1
			c-0.2,0-0.3,0-0.5,0.1l-3.2,1.7c-0.3,0.2-0.5,0.5-0.5,0.9v3.7h-0.7c-0.6,0-1,0.4-1,1v2.1v5.4v8.5c0,0.6,0.4,1,1,1h0.7v5.4
			c0,0.6,0.4,1,1,1h10.8v1.9c0,0.6,0.4,1,1,1h4.8v2.2c0,0.6,0.4,1,1,1h5.6c0.1,0.5,0.5,0.9,1,0.9h8.6c0.5,0,0.9-0.4,1-0.9h5.6
			c0.6,0,1-0.4,1-1v-2.2h4.8c0.6,0,1-0.4,1-1v-6.3l0,0c0,0,0.1,0,0.1,0c0,0,0.1,0,0.1,0l1.5-0.2c0.1,0,0.2,0,0.2-0.1l1.4-0.6
			c0.1,0,0.2-0.1,0.2-0.1l1.2-0.9c0.1-0.1,0.1-0.1,0.2-0.2l0.9-1.2c0.1-0.1,0.1-0.1,0.1-0.2l0.6-1.4c0-0.1,0.1-0.2,0.1-0.2l0.2-1.5
			c0,0,0-0.1,0-0.1v-12.6c0,0,0-0.1,0-0.1l-0.2-1.5c0-0.1,0-0.2-0.1-0.2l-0.6-1.4c0-0.1-0.1-0.2-0.1-0.2l-0.9-1.2
			c-0.1-0.1-0.1-0.1-0.2-0.2l-1.2-0.9c-0.1-0.1-0.1-0.1-0.2-0.1l-1.4-0.6c-0.1,0-0.2-0.1-0.2-0.1l-1.5-0.2c0,0-0.1,0-0.1,0
			c0,0-0.1,0-0.1,0l0,0v-0.5c0-0.6-0.4-1-1-1h-1.6c0,0-0.1-0.1-0.1-0.1l-0.3-0.2c-0.1-0.1-0.1-0.1-0.2-0.1l-0.3-0.1
			c-0.1,0-0.2-0.1-0.3-0.1l-0.4,0c0,0-0.1,0-0.1,0s-0.1,0-0.1,0l-0.4,0c-0.1,0-0.2,0-0.3,0.1l-0.4,0.1c-0.1,0-0.1,0.1-0.2,0.1
			l-0.1,0.1v-1.9c0-0.6-0.4-1-1-1h-1.6c0,0-0.1-0.1-0.1-0.1l-0.3-0.2c-0.1-0.1-0.2-0.1-0.2-0.1l-0.3-0.1c-0.1,0-0.2-0.1-0.2-0.1
			l-0.4-0.1c0,0-0.1,0-0.1,0c0,0-0.1,0-0.1,0l-0.4,0.1c-0.1,0-0.2,0-0.3,0.1l-0.3,0.1c-0.1,0-0.2,0.1-0.2,0.1l-0.3,0.2
			c0,0-0.1,0.1-0.1,0.1h-1.2v-0.7v-7.5c0-0.3-0.1-0.6-0.4-0.8l-3.7-2.9C3527.3,150.4,3527.1,150.3,3526.8,150.3L3526.8,150.3z"/>
	</g>
	<g>
		<path fill="#0A4650" d="M3296.9,181.7l1.7,27.3v8l-18.3,1.2l-1.7-27.3v-4.3l4.7-0.3v-3.7L3296.9,181.7 M3296.9,180.7
			C3296.9,180.7,3296.9,180.7,3296.9,180.7l-13.7,0.9c-0.5,0-0.9,0.5-0.9,1v2.7l-3.7,0.2c-0.5,0-0.9,0.5-0.9,1v4.3c0,0,0,0,0,0.1
			l1.7,27.3c0,0.3,0.1,0.5,0.3,0.7c0.2,0.2,0.4,0.2,0.7,0.2c0,0,0,0,0.1,0l18.3-1.2c0.5,0,0.9-0.5,0.9-1v-8c0,0,0,0,0-0.1l-1.7-27.3
			C3297.9,181.1,3297.4,180.7,3296.9,180.7L3296.9,180.7z"/>
	</g>
	<g>
		<path fill="#0A4650" d="M3322.1,180.5l0.1,1.4l7-0.5l0.2,2.4l1.8-0.1l0.3,4.7l1,0.9l0.2,2.3v2.8l0.2,0.2l0.4,5.3v8l-0.5,0.6v6
			l-8.3,0.6l-0.4-5.5l-0.9,1l-3.4,0.2l-1-0.9l-4,0.3l-0.9,1l-3.4,0.2l-0.6-0.5v5.2l-8.3,0.6l-0.4-5.5l-1-0.9l-0.4-5.3v-2.8l-0.2-0.2
			l-0.2-2.3v-8l0.5-0.6V186l1.6-0.1v-2.5l6.9-0.5v-1.4l4-0.3l0.3,3.6l5.2-0.4v-3.7L3322.1,180.5 M3322.1,179.5
			C3322.1,179.5,3322,179.5,3322.1,179.5l-4.1,0.3c-0.5,0-0.9,0.5-0.9,1v2.7l-3.3,0.2l-0.2-2.6c0-0.5-0.5-0.9-1-0.9c0,0,0,0-0.1,0
			l-4,0.3c-0.5,0-0.9,0.5-0.9,1v0.5l-6,0.4c-0.5,0-0.9,0.5-0.9,1v1.5l-0.7,0c-0.5,0-0.9,0.5-0.9,1v4.7l-0.3,0.3
			c-0.2,0.2-0.2,0.4-0.2,0.7v8c0,0,0,0,0,0.1l0.2,2.3c0,0.2,0.1,0.4,0.2,0.5v2.4c0,0,0,0,0,0.1l0.4,5.3c0,0.3,0.1,0.5,0.3,0.7
			l0.7,0.6l0.4,5.1c0,0.5,0.5,0.9,1,0.9c0,0,0,0,0.1,0l8.3-0.6c0.5,0,0.9-0.5,0.9-1v-3.7l3.1-0.2c0.3,0,0.5-0.1,0.7-0.3l0.6-0.7
			l3.2-0.2l0.7,0.6c0.2,0.2,0.4,0.2,0.7,0.2c0,0,0,0,0.1,0l3.4-0.2l0.3,3.6c0,0.5,0.5,0.9,1,0.9c0,0,0,0,0.1,0l8.3-0.6
			c0.5,0,0.9-0.5,0.9-1v-5.6l0.2-0.3c0.2-0.2,0.2-0.4,0.2-0.7v-8c0,0,0,0,0-0.1l-0.4-5.3c0-0.2-0.1-0.4-0.2-0.5v-2.4c0,0,0,0,0-0.1
			l-0.2-2.3c0-0.3-0.1-0.5-0.3-0.7l-0.7-0.6l-0.3-4.3c0-0.3-0.1-0.5-0.3-0.7c-0.2-0.2-0.4-0.2-0.7-0.2c0,0,0,0-0.1,0l-0.8,0.1
			l-0.1-1.4c0-0.5-0.5-0.9-1-0.9c0,0,0,0-0.1,0l-6,0.4l0-0.4c0-0.3-0.1-0.5-0.3-0.7C3322.6,179.6,3322.3,179.5,3322.1,179.5
			L3322.1,179.5z"/>
	</g>
	<g>
		<path fill="#0A4650" d="M3372.8,84.3l2.4,3.4l0.3,9.4v5l-42.9,2.1l-0.3-12.4v-5l23.3-0.3v-2L3372.8,84.3 M3372.8,83.3
			C3372.8,83.3,3372.8,83.3,3372.8,83.3l-17.2,0.2c-0.5,0-1,0.5-1,1v1l-22.3,0.3c-0.5,0-1,0.5-1,1v5l0.3,12.4c0,0.3,0.1,0.5,0.3,0.7
			c0.2,0.2,0.4,0.3,0.7,0.3c0,0,0,0,0,0l42.9-2.1c0.5,0,1-0.5,1-1v-5l-0.3-9.5c0-0.2-0.1-0.4-0.2-0.5l-2.4-3.4
			C3373.4,83.5,3373.1,83.3,3372.8,83.3L3372.8,83.3z"/>
	</g>
	<g>
		<path fill="#0A4650" d="M3405.4-163.3v3.3l-4.6,24.9l-29.4,2.1l-1.4-19.7l-3.8,0.3l-0.1-1.9v-3.3l3.5-0.3v-2.9L3405.4-163.3
			 M3405.4-164.3C3405.3-164.3,3405.3-164.3,3405.4-164.3l-35.8,2.6c-0.5,0-0.9,0.5-0.9,1v2l-2.6,0.2c-0.5,0-0.9,0.5-0.9,1v3.3
			c0,0,0,0,0,0.1l0.1,1.9c0,0.3,0.1,0.5,0.3,0.7c0.2,0.2,0.4,0.2,0.7,0.2c0,0,0,0,0.1,0l2.8-0.2l1.3,18.7c0,0.3,0.1,0.5,0.3,0.7
			c0.2,0.2,0.4,0.2,0.7,0.2c0,0,0,0,0.1,0l29.4-2.1c0.5,0,0.8-0.4,0.9-0.8l4.6-24.9c0-0.1,0-0.1,0-0.2v-3.3c0-0.3-0.1-0.5-0.3-0.7
			C3405.9-164.2,3405.6-164.3,3405.4-164.3L3405.4-164.3z"/>
	</g>
	<g>
		<path fill="#0A4650" d="M3708-86l1.3,43.2v5l-22.5,0.7l-1.3-43.2v-5L3708-86 M3708-87C3708-87,3708-87,3708-87l-22.5,0.7
			c-0.5,0-1,0.5-1,1v5l1.3,43.2c0,0.3,0.1,0.5,0.3,0.7c0.2,0.2,0.4,0.3,0.7,0.3c0,0,0,0,0,0l22.5-0.7c0.5,0,1-0.5,1-1v-5L3709-86
			c0-0.3-0.1-0.5-0.3-0.7C3708.5-86.9,3708.3-87,3708-87L3708-87z"/>
	</g>
	<g>
		<path fill="#0A4650" d="M3650.4-121.4l0.6,11v2.5l-5.3,0.3l-0.6-11v-2.5L3650.4-121.4 M3650.4-122.4
			C3650.4-122.4,3650.4-122.4,3650.4-122.4l-5.3,0.3c-0.5,0-0.9,0.5-0.9,1v2.5c0,0,0,0,0,0.1l0.6,11c0,0.5,0.5,0.9,1,0.9
			c0,0,0,0,0.1,0l5.3-0.3c0.5,0,0.9-0.5,0.9-1v-2.5c0,0,0,0,0-0.1l-0.6-11C3651.4-122,3651-122.4,3650.4-122.4L3650.4-122.4z"/>
	</g>
	<g>
		<path fill="#0A4650" d="M3649-65.9l0.5,15.6v2.5l-9.5,0.3l-0.1-4.2l-4.1,0.2l-0.4-11.4v-2.5L3649-65.9 M3649-66.9
			C3649-66.9,3649-66.9,3649-66.9l-13.7,0.5c-0.5,0-1,0.5-1,1v2.5l0.4,11.4c0,0.3,0.1,0.5,0.3,0.7c0.2,0.2,0.4,0.3,0.7,0.3
			c0,0,0,0,0,0l3.1-0.1l0.1,3.2c0,0.3,0.1,0.5,0.3,0.7c0.2,0.2,0.4,0.3,0.7,0.3c0,0,0,0,0,0l9.5-0.3c0.5,0,1-0.5,1-1v-2.5l-0.5-15.6
			c0-0.3-0.1-0.5-0.3-0.7C3649.5-66.8,3649.3-66.9,3649-66.9L3649-66.9z"/>
	</g>
	<g>
		<path fill="#0A4650" d="M3624.7,156.5l15.6,1.9l0.3,7.8v1.2l0.2,6.1v3.3l-15.5-0.2l-0.6-15.6V156.5 M3624.7,155.5
			c-0.2,0-0.5,0.1-0.7,0.3c-0.2,0.2-0.3,0.5-0.3,0.7v4.5l0.6,15.6c0,0.5,0.5,1,1,1l15.5,0.2c0,0,0,0,0,0c0.3,0,0.5-0.1,0.7-0.3
			c0.2-0.2,0.3-0.4,0.3-0.7v-3.3l-0.2-6.2l0-1.1l-0.3-7.8c0-0.5-0.4-0.9-0.9-1l-15.6-1.9C3624.8,155.5,3624.8,155.5,3624.7,155.5
			L3624.7,155.5z"/>
	</g>
	<g>
		<path fill="#0A4650" d="M3595.5-237.6l0,32.8h7.3l0.3,6.6v3.7l1.2,26.6v0.3v5l0,0.3l0,0.3l-0.1,0.3l-0.1,0.3l-0.1,0.3l-0.1,0.3
			l-0.1,0.3l-0.2,0.3l-0.2,0.3l-0.2,0.3l-0.2,0.3l-0.2,0.3l-0.3,0.2l-0.3,0.2l-0.3,0.2l-0.3,0.2l-0.3,0.2l-0.3,0.1l-0.3,0.1
			l-0.3,0.1l-0.3,0.1l-0.3,0.1l-0.3,0l-52.6,2.5l-0.5-29.4v-5l6.7-0.6l-1-42.5v-5L3595.5-237.6 M3595.5-238.6L3595.5-238.6
			l-43.6,0.1c-0.6,0-1,0.4-1,1v5l1,41.6l-5.7,0.5c-0.5,0-0.9,0.5-0.9,1v5l0.5,29.4c0,0.3,0.1,0.5,0.3,0.7c0.2,0.2,0.4,0.3,0.7,0.3
			c0,0,0,0,0,0l52.6-2.5l0.3,0c0,0,0.1,0,0.1,0l0.3-0.1c0,0,0,0,0.1,0l0.3-0.1c0,0,0.1,0,0.1,0l0.3-0.1l0.4-0.1c0,0,0,0,0.1,0
			l0.3-0.1c0,0,0.1,0,0.1,0l0.3-0.2l0.3-0.2c0,0,0.1,0,0.1,0l0.3-0.2l0.3-0.2c0,0,0,0,0,0l0.3-0.2c0,0,0,0,0.1-0.1l0.2-0.3l0.2-0.3
			c0,0,0-0.1,0.1-0.1l0.2-0.3l0.2-0.3c0,0,0-0.1,0.1-0.1l0.2-0.3l0.2-0.3c0,0,0-0.1,0-0.1l0.1-0.3l0.1-0.3c0,0,0-0.1,0-0.1l0.1-0.3
			c0,0,0,0,0-0.1l0.1-0.3c0,0,0,0,0-0.1l0-0.3c0,0,0,0,0-0.1l0-0.3c0,0,0,0,0-0.1v-5v-0.3l-1.2-26.6l0-3.6l-0.3-6.7c0-0.5-0.5-1-1-1
			h-6.3l0-31.8c0-0.3-0.1-0.5-0.3-0.7C3596.1-238.5,3595.8-238.6,3595.5-238.6L3595.5-238.6z"/>
	</g>
	<g>
		<path fill="#0A4650" d="M3557.4,23.2l0.1,7l32.9-0.2l0.1,14.6l6,0l0,3.8l1.5,0l0.1,12.5v2.7l-6.8,0l0-6.5l-62.6,0.4l0-5.1
			l-16.7,0.1l-0.1-19.2v-9.8L3557.4,23.2 M3557.4,22.2C3557.4,22.2,3557.4,22.2,3557.4,22.2l-45.5,0.3c-0.5,0-1,0.5-1,1v9.8
			l0.1,19.2c0,0.6,0.5,1,1,1c0,0,0,0,0,0l15.7-0.1l0,4.1c0,0.3,0.1,0.5,0.3,0.7c0.2,0.2,0.4,0.3,0.7,0.3c0,0,0,0,0,0l61.6-0.4l0,5.5
			c0,0.6,0.5,1,1,1c0,0,0,0,0,0l6.8,0c0.6,0,1-0.4,1-1v-2.7l-0.1-12.5c0-0.3-0.1-0.5-0.3-0.7c-0.2-0.2-0.4-0.3-0.7-0.3c0,0,0,0,0,0
			l-0.5,0l0-2.8c0-0.5-0.5-1-1-1c0,0,0,0,0,0l-5,0l-0.1-13.6c0-0.5-0.5-1-1-1c0,0,0,0,0,0l-31.9,0.2l0-6.1
			C3558.4,22.7,3557.9,22.2,3557.4,22.2L3557.4,22.2z"/>
	</g>
	<g>
		<path fill="#0A4650" d="M3596.6-90.4l0.3,24.9v2.5l-12.4,0.2l-0.2-14.9v-2.5l4.9-0.1l-0.1-7.6v-2.5L3596.6-90.4 M3596.6-91.4
			C3596.6-91.4,3596.6-91.4,3596.6-91.4l-7.5,0.1c-0.5,0-1,0.5-1,1v2.5l0.1,6.6l-3.9,0c-0.5,0-1,0.5-1,1v2.5l0.2,14.9
			c0,0.3,0.1,0.5,0.3,0.7c0.2,0.2,0.4,0.3,0.7,0.3c0,0,0,0,0,0l12.4-0.2c0.5,0,1-0.5,1-1v-2.5l-0.3-25
			C3597.6-91,3597.1-91.4,3596.6-91.4L3596.6-91.4z"/>
	</g>
	<g>
		<path fill="#0A4650" d="M3502.4-119.8l0.7,6.7v2.5l-4.4,0.4l-0.7-6.7v-2.5L3502.4-119.8 M3502.4-120.8
			C3502.3-120.8,3502.3-120.8,3502.4-120.8l-4.5,0.4c-0.5,0.1-0.9,0.5-0.9,1v2.5c0,0,0,0.1,0,0.1l0.7,6.7c0.1,0.5,0.5,0.9,1,0.9
			c0,0,0.1,0,0.1,0l4.4-0.4c0.5-0.1,0.9-0.5,0.9-1v-2.5c0,0,0-0.1,0-0.1l-0.7-6.7C3503.3-120.4,3502.9-120.8,3502.4-120.8
			L3502.4-120.8z"/>
	</g>
	<g>
		<path fill="#0A4650" d="M3491.6-87.2l0.4,16.7v8l-20.5,0.5l-0.4-16.7v-8L3491.6-87.2 M3491.6-88.2
			C3491.6-88.2,3491.6-88.2,3491.6-88.2l-20.5,0.5c-0.5,0-1,0.5-1,1v8l0.4,16.7c0,0.5,0.5,1,1,1c0,0,0,0,0,0l20.5-0.5
			c0.5,0,1-0.5,1-1v-8l-0.4-16.7c0-0.3-0.1-0.5-0.3-0.7C3492.1-88.1,3491.9-88.2,3491.6-88.2L3491.6-88.2z"/>
	</g>
	<g>
		<path fill="#0A4650" d="M3442.3-88.4l0.1,6.4l2.8-0.1l0.2,3.4v3.7l11.5-0.4l0.6,11.4v5l-36.2,1l-0.6-19.6v-8.6L3442.3-88.4
			 M3442.4-89.4C3442.3-89.4,3442.3-89.4,3442.4-89.4l-21.7,2c-0.5,0-0.9,0.5-0.9,1v8.6l0.6,19.6c0,0.5,0.5,1,1,1c0,0,0,0,0,0
			l36.2-1c0.5,0,1-0.5,1-1v-5c0,0,0,0,0-0.1l-0.6-11.4c0-0.5-0.5-0.9-1-0.9c0,0,0,0,0,0l-10.5,0.4v-2.6c0,0,0,0,0-0.1l-0.2-3.4
			c0-0.5-0.5-0.9-1-0.9c0,0,0,0-0.1,0l-1.7,0.1l-0.1-5.3c0-0.3-0.1-0.5-0.3-0.7C3442.8-89.3,3442.6-89.4,3442.4-89.4L3442.4-89.4z"
			/>
	</g>
	<g>
		<path fill="#0A4650" d="M3450.8-125.2l1.9,16v5l-28.6,3.4l-1.9-16v-5L3450.8-125.2 M3450.8-126.2c0,0-0.1,0-0.1,0l-28.6,3.4
			c-0.5,0.1-0.9,0.5-0.9,1v5c0,0,0,0.1,0,0.1l1.9,16c0.1,0.5,0.5,0.9,1,0.9c0,0,0.1,0,0.1,0l28.6-3.4c0.5-0.1,0.9-0.5,0.9-1v-5
			c0,0,0-0.1,0-0.1l-1.9-16C3451.7-125.8,3451.3-126.2,3450.8-126.2L3450.8-126.2z"/>
	</g>
	<g>
		<path fill="#0A4650" d="M3449-183.1v5.8l-5,34.2l-19.9,1.5l-3.3-3v-5.8l4.9-32.5L3449-183.1 M3449-184.1
			C3449-184.1,3449-184.1,3449-184.1l-23.3,0.1c-0.5,0-0.9,0.4-1,0.9l-4.9,32.5c0,0,0,0.1,0,0.1v5.8c0,0.3,0.1,0.5,0.3,0.7l3.3,3
			c0.2,0.2,0.4,0.3,0.7,0.3c0,0,0,0,0.1,0l19.9-1.5c0.5,0,0.8-0.4,0.9-0.9l5-34.2c0,0,0-0.1,0-0.1v-5.8c0-0.3-0.1-0.5-0.3-0.7
			C3449.6-184,3449.3-184.1,3449-184.1L3449-184.1z"/>
	</g>
	<g>
		<path fill="#0A4650" d="M3403.8-51.4l1.1,46.5l0.6,1.1l0,1.1v1.8l-0.5,1.2v8l-29.4,1l-0.3-7.6V-9.3l0.4,0l-0.5-15.1V-36l0.4,0
			l-0.3-4.8v-9.8L3403.8-51.4 M3403.8-52.4C3403.8-52.4,3403.8-52.4,3403.8-52.4l-28.4,0.7c-0.5,0-1,0.5-1,1v9.8c0,0,0,0,0,0.1
			l0.2,4.1c-0.2,0.2-0.3,0.4-0.3,0.7v11.6l0.4,14.3c-0.3,0.2-0.4,0.5-0.4,0.8V1.9l0.3,7.6c0,0.3,0.1,0.5,0.3,0.7
			c0.2,0.2,0.4,0.3,0.7,0.3c0,0,0,0,0,0l29.4-1c0.5,0,1-0.5,1-1V0.6l0.5-1c0.1-0.1,0.1-0.3,0.1-0.4v-1.8l0-1.2c0-0.2,0-0.3-0.1-0.4
			l-0.5-0.9l-1.1-46.2c0-0.3-0.1-0.5-0.3-0.7C3404.3-52.3,3404.1-52.4,3403.8-52.4L3403.8-52.4z"/>
	</g>
	<g>
		<path fill="#0A4650" d="M3400.4-126.4l2.1,2l1.4,55.7v8l-24.5,2.4L3378-118v-8L3400.4-126.4 M3400.4-127.4
			C3400.4-127.4,3400.4-127.4,3400.4-127.4L3378-127c-0.5,0-1,0.5-1,1v8l1.4,59.7c0,0.3,0.1,0.5,0.3,0.7c0.2,0.2,0.4,0.3,0.7,0.3
			c0,0,0.1,0,0.1,0l24.5-2.4c0.5-0.1,0.9-0.5,0.9-1v-8l-1.4-55.7c0-0.3-0.1-0.5-0.3-0.7l-2.1-2
			C3400.9-127.3,3400.6-127.4,3400.4-127.4L3400.4-127.4z"/>
	</g>
	<g>
		<path fill="#0A4650" d="M3393.7,107.8l0.5,0l0.5,0.1l0.4,0.1l0.4,0.1l0.4,0.2l0.4,0.2l0.4,0.2l0.4,0.2l0.4,0.3l0.3,0.3l0.3,0.3
			l0.3,0.3l0.3,0.4l0.3,0.4l0.2,0.4l0.2,0.4l0.2,0.4l0.1,0.4l0.1,0.4l0.1,0.5l0,0.5l0,0.5v5.8l0,0.5l-1.1,21.2l-62.9-3.4v-3.1
			l-9.5-0.5l-0.6-18.8v-5.8l67.4-2.2H3393.7 M3393.7,106.8h-0.5l-67.4,2.2c-0.5,0-1,0.5-1,1v5.8l0.6,18.8c0,0.5,0.4,0.9,0.9,1
			l8.5,0.5v2.2c0,0.5,0.4,1,0.9,1l62.9,3.4c0,0,0,0,0.1,0c0.5,0,1-0.4,1-0.9l1.1-21.2l0-0.5l0-5.9l0-0.5c0,0,0,0,0-0.1l0-0.5
			c0,0,0,0,0-0.1l-0.1-0.5c0,0,0,0,0-0.1l-0.1-0.4c0,0,0-0.1,0-0.1l-0.1-0.4c0,0,0,0,0-0.1l-0.2-0.4c0,0,0,0,0-0.1l-0.2-0.4
			c0,0,0,0,0-0.1l-0.2-0.4c0,0,0-0.1-0.1-0.1l-0.3-0.4l-0.3-0.4c0,0,0,0,0-0.1l-0.3-0.3c0,0,0,0-0.1-0.1l-0.3-0.3l-0.4-0.3
			c0,0,0,0-0.1-0.1l-0.4-0.3c0,0,0,0-0.1,0l-0.4-0.2l-0.4-0.2c0,0,0,0-0.1,0l-0.4-0.2c0,0,0,0-0.1,0l-0.4-0.2c0,0,0,0-0.1,0
			l-0.4-0.1c0,0,0,0-0.1,0l-0.4-0.1l-0.5-0.1c0,0-0.1,0-0.1,0L3393.7,106.8C3393.8,106.8,3393.8,106.8,3393.7,106.8L3393.7,106.8z"
			/>
	</g>
	<g>
		<path fill="#0A4650" d="M3326.9,144l69.6,4.9v5.8l-1.8,26.1l-62.6-4.4v-5.8l0.7-9.6l-6.6-0.5v-5.8L3326.9,144 M3326.9,143
			c-0.2,0-0.5,0.1-0.7,0.2c-0.2,0.2-0.3,0.4-0.3,0.7l-0.8,10.8c0,0,0,0,0,0.1v5.8c0,0.5,0.4,1,0.9,1l5.6,0.4l-0.6,8.6c0,0,0,0,0,0.1
			v5.8c0,0.5,0.4,1,0.9,1l62.6,4.4c0,0,0,0,0.1,0c0.2,0,0.5-0.1,0.7-0.2c0.2-0.2,0.3-0.4,0.3-0.7l1.8-26.1c0,0,0,0,0-0.1v-5.8
			c0-0.5-0.4-1-0.9-1L3326.9,143C3326.9,143,3326.9,143,3326.9,143L3326.9,143z"/>
	</g>
	<g>
		<path fill="#0A4650" d="M3362.4,186.1l27.8,2.3v5.8l-0.8,9.8l-3.4-0.3l-0.8,8.9l-22.1-1.8v-5.8l0.4-4.8l-1.8-0.2v-5.8
			L3362.4,186.1 M3362.4,185.1c-0.5,0-1,0.4-1,0.9l-0.7,8c0,0,0,0.1,0,0.1v5.8c0,0.5,0.4,1,0.9,1l0.8,0.1l-0.3,3.8c0,0,0,0.1,0,0.1
			v5.8c0,0.5,0.4,1,0.9,1l22.1,1.8c0,0,0.1,0,0.1,0c0.5,0,1-0.4,1-0.9l0.7-7.9l2.4,0.2c0,0,0.1,0,0.1,0c0.5,0,1-0.4,1-0.9l0.8-9.8
			c0,0,0-0.1,0-0.1v-5.8c0-0.5-0.4-1-0.9-1L3362.4,185.1C3362.5,185.1,3362.5,185.1,3362.4,185.1L3362.4,185.1z"/>
	</g>
</g>
</svg>
